  0
SECTION
  2
HEADER
  9
$ACADVER
  1
AC1003
  9
$EXTMIN
 10
-0.15
 20
18.55
  9
$EXTMAX
 10
14.9622047244
 20
0
  9
$INSUNITS
 70
1
  9
$INSBASE
 10
7.4061023622
 20
9.275
999
Created with OMAX LAYOUT for Windows. (www.omax.com) 10/7/2020
  0
ENDSEC
  0
SECTION
  2
TABLES
  0
TABLE
  2
LAYER
 70
    10
  0
LAYER
  2
0
 70
     0
 62
     7
  6
CONTINUOUS
  0
LAYER
  2
1
 70
     0
 62
     7
  6
CONTINUOUS
  0
LAYER
  2
2
 70
     0
 62
     7
  6
CONTINUOUS
  0
LAYER
  2
3
 70
     0
 62
     7
  6
CONTINUOUS
  0
LAYER
  2
4
 70
     0
 62
     7
  6
CONTINUOUS
  0
LAYER
  2
5
 70
     0
 62
     7
  6
CONTINUOUS
  0
LAYER
  2
6
 70
     0
 62
     7
  6
CONTINUOUS
  0
LAYER
  2
7
 70
     0
 62
     7
  6
CONTINUOUS
  0
LAYER
  2
8
 70
     0
 62
     7
  6
CONTINUOUS
  0
LAYER
  2
9
 70
     0
 62
     7
  6
CONTINUOUS
  0
LAYER
  2
10
 70
     0
 62
     7
  6
CONTINUOUS
  0
LAYER
  2
11
 70
     0
 62
     7
  6
CONTINUOUS
  0
LAYER
  2
12
 70
     0
 62
     7
  6
CONTINUOUS
  0
LAYER
  2
13
 70
     0
 62
     7
  6
CONTINUOUS
  0
LAYER
  2
14
 70
     0
 62
     7
  6
CONTINUOUS
  0
LAYER
  2
15
 70
     0
 62
     7
  6
CONTINUOUS
  0
LAYER
  2
16
 70
     0
 62
     7
  6
CONTINUOUS
  0
LAYER
  2
17
 70
     0
 62
     7
  6
CONTINUOUS
  0
LAYER
  2
18
 70
     0
 62
     7
  6
CONTINUOUS
  0
LAYER
  2
19
 70
     0
 62
     7
  6
CONTINUOUS
  0
LAYER
  2
20
 70
     0
 62
     7
  6
CONTINUOUS
  0
LAYER
  2
21
 70
     0
 62
     7
  6
CONTINUOUS
  0
LAYER
  2
22
 70
     0
 62
     7
  6
CONTINUOUS
  0
LAYER
  2
23
 70
     0
 62
     7
  6
CONTINUOUS
  0
LAYER
  2
24
 70
     0
 62
     7
  6
CONTINUOUS
  0
LAYER
  2
25
 70
     0
 62
     7
  6
CONTINUOUS
  0
LAYER
  2
26
 70
     0
 62
     7
  6
CONTINUOUS
  0
LAYER
  2
27
 70
     0
 62
     7
  6
CONTINUOUS
  0
LAYER
  2
28
 70
     0
 62
     7
  6
CONTINUOUS
  0
LAYER
  2
29
 70
     0
 62
     7
  6
CONTINUOUS
  0
LAYER
  2
30
 70
     0
 62
     7
  6
CONTINUOUS
  0
LAYER
  2
31
 70
     0
 62
     7
  6
CONTINUOUS
  0
ENDTAB
  0
ENDSEC
  0
SECTION
  2
ENTITIES
  0
LINE
  8
0
  6
CONTINUOUS
 62
0
 10
-0.15
 20
0
 30
0.0
 11
7.45
 21
6
 31
0.0
  0
LINE
  8
0
  6
CONTINUOUS
 62
0
 10
7.6
 20
6.05
 30
0.0
 11
7.3622047244
 21
6.15
 31
0.0
  0
LINE
  8
0
  6
CONTINUOUS
 62
0
 10
7.4122047244
 20
6
 30
0.0
 11
7.3622047244
 21
12.4
 31
0.0
  0
LINE
  8
0
  6
CONTINUOUS
 62
0
 10
7.4122047244
 20
12.25
 30
0.0
 11
7.45
 21
12.25
 31
0.0
  0
LINE
  8
0
  6
CONTINUOUS
 62
0
 10
7.6
 20
12.3
 30
0.0
 11
7.6
 21
12.35
 31
0.0
  0
LINE
  8
0
  6
CONTINUOUS
 62
0
 10
7.55
 20
12.5
 30
0.0
 11
-0.15
 21
18.5
 31
0.0
  0
LINE
  8
0
  6
CONTINUOUS
 62
0
 10
0
 20
18.55
 30
0.0
 11
-0.15
 21
18.55
 31
0.0
  0
LINE
  8
3
  6
CONTINUOUS
 62
3
 10
7.6
 20
6
 30
0.0
 11
14.9622047244
 21
6
 31
0.0
  0
LINE
  8
3
  6
CONTINUOUS
 62
3
 10
14.9622047244
 20
6
 30
0.0
 11
14.9622047244
 21
0
 31
0.0
  0
LINE
  8
3
  6
CONTINUOUS
 62
3
 10
14.9622047244
 20
0
 30
0.0
 11
7.6
 21
0
 31
0.0
  0
LINE
  8
3
  6
CONTINUOUS
 62
3
 10
7.6
 20
0
 30
0.0
 11
7.6
 21
6
 31
0.0
  0
LINE
  8
3
  6
CONTINUOUS
 62
3
 10
7.3622047244
 20
6
 30
0.0
 11
7.3622047244
 21
0
 31
0.0
  0
LINE
  8
3
  6
CONTINUOUS
 62
3
 10
7.3622047244
 20
0
 30
0.0
 11
0
 21
0
 31
0.0
  0
LINE
  8
3
  6
CONTINUOUS
 62
3
 10
0
 20
0
 30
0.0
 11
0
 21
6
 31
0.0
  0
LINE
  8
3
  6
CONTINUOUS
 62
3
 10
0
 20
6
 30
0.0
 11
7.3622047244
 21
6
 31
0.0
  0
LINE
  8
3
  6
CONTINUOUS
 62
3
 10
7.3622047244
 20
12.25
 30
0.0
 11
7.3622047244
 21
6.25
 31
0.0
  0
LINE
  8
3
  6
CONTINUOUS
 62
3
 10
7.3622047244
 20
6.25
 30
0.0
 11
0
 21
6.25
 31
0.0
  0
LINE
  8
3
  6
CONTINUOUS
 62
3
 10
0
 20
6.25
 30
0.0
 11
0
 21
12.25
 31
0.0
  0
LINE
  8
3
  6
CONTINUOUS
 62
3
 10
0
 20
12.25
 30
0.0
 11
7.3622047244
 21
12.25
 31
0.0
  0
LINE
  8
3
  6
CONTINUOUS
 62
3
 10
7.6
 20
12.25
 30
0.0
 11
14.9622047244
 21
12.25
 31
0.0
  0
LINE
  8
3
  6
CONTINUOUS
 62
3
 10
14.9622047244
 20
12.25
 30
0.0
 11
14.9622047244
 21
6.25
 31
0.0
  0
LINE
  8
3
  6
CONTINUOUS
 62
3
 10
14.9622047244
 20
6.25
 30
0.0
 11
7.6
 21
6.25
 31
0.0
  0
LINE
  8
3
  6
CONTINUOUS
 62
3
 10
7.6
 20
6.25
 30
0.0
 11
7.6
 21
12.25
 31
0.0
  0
LINE
  8
3
  6
CONTINUOUS
 62
3
 10
7.6
 20
12.5
 30
0.0
 11
7.6
 21
18.5
 31
0.0
  0
LINE
  8
3
  6
CONTINUOUS
 62
3
 10
7.6
 20
18.5
 30
0.0
 11
14.9622047244
 21
18.5
 31
0.0
  0
LINE
  8
3
  6
CONTINUOUS
 62
3
 10
14.9622047244
 20
18.5
 30
0.0
 11
14.9622047244
 21
12.5
 31
0.0
  0
LINE
  8
3
  6
CONTINUOUS
 62
3
 10
14.9622047244
 20
12.5
 30
0.0
 11
7.6
 21
12.5
 31
0.0
  0
LINE
  8
3
  6
CONTINUOUS
 62
3
 10
0
 20
18.5
 30
0.0
 11
7.3622047244
 21
18.5
 31
0.0
  0
LINE
  8
3
  6
CONTINUOUS
 62
3
 10
7.3622047244
 20
18.5
 30
0.0
 11
7.3622047244
 21
12.5
 31
0.0
  0
LINE
  8
3
  6
CONTINUOUS
 62
3
 10
7.3622047244
 20
12.5
 30
0.0
 11
0
 21
12.5
 31
0.0
  0
LINE
  8
3
  6
CONTINUOUS
 62
3
 10
0
 20
12.5
 30
0.0
 11
0
 21
18.5
 31
0.0
  0
LINE
  8
9
  6
CONTINUOUS
 62
9
 10
7.45
 20
6
 30
0.0
 11
7.6
 21
6
 31
0.0
  0
LINE
  8
9
  6
CONTINUOUS
 62
9
 10
7.6
 20
6
 30
0.0
 11
7.6
 21
6.05
 31
0.0
  0
LINE
  8
9
  6
CONTINUOUS
 62
9
 10
7.3622047244
 20
6.15
 30
0.0
 11
7.3622047244
 21
6
 31
0.0
  0
LINE
  8
9
  6
CONTINUOUS
 62
9
 10
7.3622047244
 20
6
 30
0.0
 11
7.4122047244
 21
6
 31
0.0
  0
LINE
  8
9
  6
CONTINUOUS
 62
9
 10
7.3622047244
 20
12.4
 30
0.0
 11
7.3622047244
 21
12.25
 31
0.0
  0
LINE
  8
9
  6
CONTINUOUS
 62
9
 10
7.3622047244
 20
12.25
 30
0.0
 11
7.4122047244
 21
12.25
 31
0.0
  0
LINE
  8
9
  6
CONTINUOUS
 62
9
 10
7.45
 20
12.25
 30
0.0
 11
7.6
 21
12.25
 31
0.0
  0
LINE
  8
9
  6
CONTINUOUS
 62
9
 10
7.6
 20
12.25
 30
0.0
 11
7.6
 21
12.3
 31
0.0
  0
LINE
  8
9
  6
CONTINUOUS
 62
9
 10
7.6
 20
12.35
 30
0.0
 11
7.6
 21
12.5
 31
0.0
  0
LINE
  8
9
  6
CONTINUOUS
 62
9
 10
7.6
 20
12.5
 30
0.0
 11
7.55
 21
12.5
 31
0.0
  0
LINE
  8
9
  6
CONTINUOUS
 62
9
 10
-0.15
 20
18.5
 30
0.0
 11
0
 21
18.5
 31
0.0
  0
LINE
  8
9
  6
CONTINUOUS
 62
9
 10
0
 20
18.5
 30
0.0
 11
0
 21
18.55
 31
0.0
  0
ENDSEC
  0
EOF
