  0
SECTION
  2
HEADER
  9
$ACADVER
  1
AC1003
  9
$EXTMIN
 10
-0.141482866314808
 20
24.0417832732655
  9
$EXTMAX
 10
22.7585171336852
 20
-0.00371983987452773
  9
$INSUNITS
 70
1
  9
$INSBASE
 10
11.3085171336852
 20
12.0190317166955
999
Created with OMAX LAYOUT for Windows. (www.omax.com) 10/7/2020
  0
ENDSEC
  0
SECTION
  2
TABLES
  0
TABLE
  2
LAYER
 70
    10
  0
LAYER
  2
0
 70
     0
 62
     7
  6
CONTINUOUS
  0
LAYER
  2
1
 70
     0
 62
     7
  6
CONTINUOUS
  0
LAYER
  2
2
 70
     0
 62
     7
  6
CONTINUOUS
  0
LAYER
  2
3
 70
     0
 62
     7
  6
CONTINUOUS
  0
LAYER
  2
4
 70
     0
 62
     7
  6
CONTINUOUS
  0
LAYER
  2
5
 70
     0
 62
     7
  6
CONTINUOUS
  0
LAYER
  2
6
 70
     0
 62
     7
  6
CONTINUOUS
  0
LAYER
  2
7
 70
     0
 62
     7
  6
CONTINUOUS
  0
LAYER
  2
8
 70
     0
 62
     7
  6
CONTINUOUS
  0
LAYER
  2
9
 70
     0
 62
     7
  6
CONTINUOUS
  0
LAYER
  2
10
 70
     0
 62
     7
  6
CONTINUOUS
  0
LAYER
  2
11
 70
     0
 62
     7
  6
CONTINUOUS
  0
LAYER
  2
12
 70
     0
 62
     7
  6
CONTINUOUS
  0
LAYER
  2
13
 70
     0
 62
     7
  6
CONTINUOUS
  0
LAYER
  2
14
 70
     0
 62
     7
  6
CONTINUOUS
  0
LAYER
  2
15
 70
     0
 62
     7
  6
CONTINUOUS
  0
LAYER
  2
16
 70
     0
 62
     7
  6
CONTINUOUS
  0
LAYER
  2
17
 70
     0
 62
     7
  6
CONTINUOUS
  0
LAYER
  2
18
 70
     0
 62
     7
  6
CONTINUOUS
  0
LAYER
  2
19
 70
     0
 62
     7
  6
CONTINUOUS
  0
LAYER
  2
20
 70
     0
 62
     7
  6
CONTINUOUS
  0
LAYER
  2
21
 70
     0
 62
     7
  6
CONTINUOUS
  0
LAYER
  2
22
 70
     0
 62
     7
  6
CONTINUOUS
  0
LAYER
  2
23
 70
     0
 62
     7
  6
CONTINUOUS
  0
LAYER
  2
24
 70
     0
 62
     7
  6
CONTINUOUS
  0
LAYER
  2
25
 70
     0
 62
     7
  6
CONTINUOUS
  0
LAYER
  2
26
 70
     0
 62
     7
  6
CONTINUOUS
  0
LAYER
  2
27
 70
     0
 62
     7
  6
CONTINUOUS
  0
LAYER
  2
28
 70
     0
 62
     7
  6
CONTINUOUS
  0
LAYER
  2
29
 70
     0
 62
     7
  6
CONTINUOUS
  0
LAYER
  2
30
 70
     0
 62
     7
  6
CONTINUOUS
  0
LAYER
  2
31
 70
     0
 62
     7
  6
CONTINUOUS
  0
ENDTAB
  0
ENDSEC
  0
SECTION
  2
ENTITIES
  0
LINE
  8
0
  6
CONTINUOUS
 62
0
 10
-0.09965098634445
 20
-0.00371983987452751
 30
0.0
 11
1.50034902355555
 21
5.14628019312546
 31
0.0
  0
LINE
  8
0
  6
CONTINUOUS
 62
0
 10
1.55034902355555
 20
4.99628019312546
 30
0.0
 11
3.25034902355555
 21
5.14628019312546
 31
0.0
  0
LINE
  8
0
  6
CONTINUOUS
 62
0
 10
3.30034902355555
 20
4.99628019312546
 30
0.0
 11
5.00034902355555
 21
5.14628019312546
 31
0.0
  0
LINE
  8
0
  6
CONTINUOUS
 62
0
 10
5.05034902355555
 20
4.99628019312546
 30
0.0
 11
6.75034902355555
 21
5.14628019312546
 31
0.0
  0
LINE
  8
0
  6
CONTINUOUS
 62
0
 10
6.80034902355555
 20
4.99628019312546
 30
0.0
 11
8.50034902355555
 21
5.14628019312546
 31
0.0
  0
LINE
  8
0
  6
CONTINUOUS
 62
0
 10
8.55034902355555
 20
4.99628019312546
 30
0.0
 11
10.2503490235555
 21
5.14628019312546
 31
0.0
  0
LINE
  8
0
  6
CONTINUOUS
 62
0
 10
10.3003490235555
 20
4.99628019312546
 30
0.0
 11
12.0003490235555
 21
5.14628019312546
 31
0.0
  0
LINE
  8
0
  6
CONTINUOUS
 62
0
 10
12.0503490235555
 20
4.99628019312546
 30
0.0
 11
13.7503490235555
 21
5.14628019312546
 31
0.0
  0
LINE
  8
0
  6
CONTINUOUS
 62
0
 10
13.8003490235555
 20
4.99628019312546
 30
0.0
 11
15.5003490235555
 21
5.14628019312546
 31
0.0
  0
LINE
  8
0
  6
CONTINUOUS
 62
0
 10
15.5503490235555
 20
4.99628019312546
 30
0.0
 11
17.2503490235555
 21
5.14628019312546
 31
0.0
  0
LINE
  8
0
  6
CONTINUOUS
 62
0
 10
17.3003490235555
 20
4.99628019312546
 30
0.0
 11
19.0003490235555
 21
5.14628019312546
 31
0.0
  0
LINE
  8
0
  6
CONTINUOUS
 62
0
 10
19.0503490235555
 20
4.99628019312546
 30
0.0
 11
20.7503490235555
 21
5.14628019312546
 31
0.0
  0
LINE
  8
0
  6
CONTINUOUS
 62
0
 10
20.8003490235555
 20
4.99628019312546
 30
0.0
 11
20.8503490136555
 21
4.99628019312546
 31
0.0
  0
LINE
  8
0
  6
CONTINUOUS
 62
0
 10
21.0003490136555
 20
5.04628019312546
 30
0.0
 11
21.7528860462115
 21
10.1131515737778
 31
0.0
  0
LINE
  8
0
  6
CONTINUOUS
 62
0
 10
21.768533636846
 20
10.0343821518417
 30
0.0
 11
21.7530078076338
 21
9.61517864087352
 31
0.0
  0
LINE
  8
0
  6
CONTINUOUS
 62
0
 10
21.7399059477971
 20
9.53594600748534
 30
0.0
 11
21.7530078076338
 21
9.11517864087352
 31
0.0
  0
LINE
  8
0
  6
CONTINUOUS
 62
0
 10
21.7399059477971
 20
9.03594600748534
 30
0.0
 11
21.7595933035075
 21
8.61939935650012
 31
0.0
  0
LINE
  8
0
  6
CONTINUOUS
 62
0
 10
21.6798132315032
 20
8.62859767350903
 30
0.0
 11
12.5141829096494
 21
8.61409337283088
 31
0.0
  0
LINE
  8
0
  6
CONTINUOUS
 62
0
 10
12.5043723550025
 20
8.69380047378386
 30
0.0
 11
12.5141829096494
 21
9.11409337283088
 31
0.0
  0
LINE
  8
0
  6
CONTINUOUS
 62
0
 10
12.5043723550025
 20
9.19380047378386
 30
0.0
 11
12.5141829096494
 21
9.61409337283088
 31
0.0
  0
LINE
  8
0
  6
CONTINUOUS
 62
0
 10
12.5043723550025
 20
9.69380047378386
 30
0.0
 11
12.5125386738216
 21
10.1178301830111
 31
0.0
  0
LINE
  8
0
  6
CONTINUOUS
 62
0
 10
12.4517415149038
 20
10.1703008833335
 30
0.0
 11
11.3585171336852
 21
11.4917832732655
 31
0.0
  0
LINE
  8
0
  6
CONTINUOUS
 62
0
 10
11.5085171336852
 20
11.5417832732655
 30
0.0
 11
1.00285135775769
 21
10.1135676619147
 31
0.0
  0
LINE
  8
0
  6
CONTINUOUS
 62
0
 10
1.01266191238295
 20
10.033860560959
 30
0.0
 11
1.00285135775769
 21
9.61356766191468
 31
0.0
  0
LINE
  8
0
  6
CONTINUOUS
 62
0
 10
1.01266191238295
 20
9.53386056095904
 30
0.0
 11
1.00285135775769
 21
9.11356766191468
 31
0.0
  0
LINE
  8
0
  6
CONTINUOUS
 62
0
 10
1.01266191238295
 20
9.03386056095904
 30
0.0
 11
1.00845526440669
 21
8.60815898470717
 31
0.0
  0
LINE
  8
0
  6
CONTINUOUS
 62
0
 10
1.0885932234416
 20
8.61339123532492
 30
0.0
 11
10.2641829096494
 21
8.61409337283088
 31
0.0
  0
LINE
  8
0
  6
CONTINUOUS
 62
0
 10
10.2543723550025
 20
8.69380047378386
 30
0.0
 11
10.2641829096494
 21
9.11409337283088
 31
0.0
  0
LINE
  8
0
  6
CONTINUOUS
 62
0
 10
10.2543723550025
 20
9.19380047378386
 30
0.0
 11
10.2641829096494
 21
9.61409337283088
 31
0.0
  0
LINE
  8
0
  6
CONTINUOUS
 62
0
 10
10.2543723550025
 20
9.69380047378386
 30
0.0
 11
10.2635764126153
 21
10.1112665737756
 31
0.0
  0
LINE
  8
0
  6
CONTINUOUS
 62
0
 10
10.2943278626198
 20
10.1854542900596
 30
0.0
 11
11.2585171336852
 21
11.6417832732655
 31
0.0
  0
LINE
  8
0
  6
CONTINUOUS
 62
0
 10
11.3085171336852
 20
11.4917832732655
 30
0.0
 11
1.00286179065022
 21
16.3642631901568
 31
0.0
  0
LINE
  8
0
  6
CONTINUOUS
 62
0
 10
1.00284156532849
 20
16.2839546070804
 30
0.0
 11
1.00300780763382
 21
15.8651786408735
 31
0.0
  0
LINE
  8
0
  6
CONTINUOUS
 62
0
 10
0.989905947797078
 20
15.7859460074853
 30
0.0
 11
1.00300780763382
 21
15.3651786408735
 31
0.0
  0
LINE
  8
0
  6
CONTINUOUS
 62
0
 10
0.989905947797078
 20
15.2859460074853
 30
0.0
 11
1.00974475106196
 21
14.8582930932287
 31
0.0
  0
LINE
  8
0
  6
CONTINUOUS
 62
0
 10
1.08660114461495
 20
14.8815860899195
 30
0.0
 11
10.2641829096494
 21
14.8640933728309
 31
0.0
  0
LINE
  8
0
  6
CONTINUOUS
 62
0
 10
10.2543723550025
 20
14.9438004737839
 30
0.0
 11
10.2641829096494
 21
15.3640933728309
 31
0.0
  0
LINE
  8
0
  6
CONTINUOUS
 62
0
 10
10.2543723550025
 20
15.4438004737839
 30
0.0
 11
10.2641829096494
 21
15.8640933728309
 31
0.0
  0
LINE
  8
0
  6
CONTINUOUS
 62
0
 10
10.2543723550025
 20
15.9438004737839
 30
0.0
 11
10.2635764126153
 21
16.3612665737756
 31
0.0
  0
LINE
  8
0
  6
CONTINUOUS
 62
0
 10
10.2943278626198
 20
16.4354542900596
 30
0.0
 11
11.2585171336852
 21
17.8917832732655
 31
0.0
  0
LINE
  8
0
  6
CONTINUOUS
 62
0
 10
11.3085171336852
 20
17.7417832732655
 30
0.0
 11
21.7528513577577
 21
16.3635676619147
 31
0.0
  0
LINE
  8
0
  6
CONTINUOUS
 62
0
 10
21.762661912383
 20
16.283860560959
 30
0.0
 11
21.7528513577577
 21
15.8635676619147
 31
0.0
  0
LINE
  8
0
  6
CONTINUOUS
 62
0
 10
21.762661912383
 20
15.783860560959
 30
0.0
 11
21.7528513577577
 21
15.3635676619147
 31
0.0
  0
LINE
  8
0
  6
CONTINUOUS
 62
0
 10
21.762661912383
 20
15.283860560959
 30
0.0
 11
21.758579002964
 21
14.8695020500195
 31
0.0
  0
LINE
  8
0
  6
CONTINUOUS
 62
0
 10
21.6784410439289
 20
14.8642697994044
 30
0.0
 11
12.5141829096494
 21
14.8640933728309
 31
0.0
  0
LINE
  8
0
  6
CONTINUOUS
 62
0
 10
12.5043723550025
 20
14.9438004737839
 30
0.0
 11
12.5141829096494
 21
15.3640933728309
 31
0.0
  0
LINE
  8
0
  6
CONTINUOUS
 62
0
 10
12.5043723550025
 20
15.4438004737839
 30
0.0
 11
12.5141829096494
 21
15.8640933728309
 31
0.0
  0
LINE
  8
0
  6
CONTINUOUS
 62
0
 10
12.5043723550025
 20
15.9438004737839
 30
0.0
 11
12.5125386738217
 21
16.3678301830111
 31
0.0
  0
LINE
  8
0
  6
CONTINUOUS
 62
0
 10
12.4517415149038
 20
16.4203008833335
 30
0.0
 11
11.3585171336852
 21
17.7417832732655
 31
0.0
  0
LINE
  8
0
  6
CONTINUOUS
 62
0
 10
11.5085171336852
 20
17.7917832732655
 30
0.0
 11
21.7641829096494
 21
21.1140933728309
 31
0.0
  0
LINE
  8
0
  6
CONTINUOUS
 62
0
 10
21.7543723550025
 20
21.1938004737839
 30
0.0
 11
21.7641829096494
 21
21.6140933728309
 31
0.0
  0
LINE
  8
0
  6
CONTINUOUS
 62
0
 10
21.7543723550025
 20
21.6938004737839
 30
0.0
 11
21.7641829096494
 21
22.1140933728309
 31
0.0
  0
LINE
  8
0
  6
CONTINUOUS
 62
0
 10
21.7543723550025
 20
22.1938004737839
 30
0.0
 11
21.758579002964
 21
22.6195020500195
 31
0.0
  0
LINE
  8
0
  6
CONTINUOUS
 62
0
 10
21.6784410439289
 20
22.6142697994044
 30
0.0
 11
12.5028513577577
 21
22.6135676619147
 31
0.0
  0
LINE
  8
0
  6
CONTINUOUS
 62
0
 10
12.512661912383
 20
22.533860560959
 30
0.0
 11
12.5028513577577
 21
22.1135676619147
 31
0.0
  0
LINE
  8
0
  6
CONTINUOUS
 62
0
 10
12.512661912383
 20
22.033860560959
 30
0.0
 11
12.5028513577577
 21
21.6135676619147
 31
0.0
  0
LINE
  8
0
  6
CONTINUOUS
 62
0
 10
12.512661912383
 20
21.533860560959
 30
0.0
 11
12.503094002628
 21
21.1154917698039
 31
0.0
  0
LINE
  8
0
  6
CONTINUOUS
 62
0
 10
12.4854785585705
 20
21.0371389456336
 30
0.0
 11
11.5085171336852
 21
17.8417832732655
 31
0.0
  0
LINE
  8
0
  6
CONTINUOUS
 62
0
 10
11.4585171336852
 20
17.9917832732655
 30
0.0
 11
10.2528860462115
 21
22.6131515737778
 31
0.0
  0
LINE
  8
0
  6
CONTINUOUS
 62
0
 10
10.268533636846
 20
22.5343821518417
 30
0.0
 11
10.2530078076338
 21
22.1151786408735
 31
0.0
  0
LINE
  8
0
  6
CONTINUOUS
 62
0
 10
10.2399059477971
 20
22.0359460074853
 30
0.0
 11
10.2530078076338
 21
21.6151786408735
 31
0.0
  0
LINE
  8
0
  6
CONTINUOUS
 62
0
 10
10.2399059477971
 20
21.5359460074853
 30
0.0
 11
10.2595933035075
 21
21.1193993565001
 31
0.0
  0
LINE
  8
0
  6
CONTINUOUS
 62
0
 10
10.1798132315032
 20
21.128597673509
 30
0.0
 11
1.01418290964937
 21
21.1140933728309
 31
0.0
  0
LINE
  8
0
  6
CONTINUOUS
 62
0
 10
1.00437235500249
 20
21.1938004737839
 30
0.0
 11
1.01418290964937
 21
21.6140933728309
 31
0.0
  0
LINE
  8
0
  6
CONTINUOUS
 62
0
 10
1.00437235500249
 20
21.6938004737839
 30
0.0
 11
1.01418290964937
 21
22.1140933728309
 31
0.0
  0
LINE
  8
0
  6
CONTINUOUS
 62
0
 10
1.00437235500249
 20
22.1938004737839
 30
0.0
 11
1.01253867382165
 21
22.6178301830111
 31
0.0
  0
LINE
  8
0
  6
CONTINUOUS
 62
0
 10
0.951741514903788
 20
22.6703008833335
 30
0.0
 11
-0.141482866314808
 21
23.9917832732655
 31
0.0
  0
LINE
  8
0
  6
CONTINUOUS
 62
0
 10
0.00851713368519214
 20
24.0417832732655
 30
0.0
 11
-0.141482866314808
 21
24.0417832732655
 31
0.0
  0
LINE
  8
3
  6
CONTINUOUS
 62
3
 10
1.50034902355555
 20
4.99628019312546
 30
0.0
 11
1.50034902355555
 21
-0.00371983987452773
 31
0.0
  0
LINE
  8
3
  6
CONTINUOUS
 62
3
 10
1.50034902355555
 20
-0.00371983987452773
 30
0.0
 11
0.000349013655550623
 21
-0.00371983987452773
 31
0.0
  0
LINE
  8
3
  6
CONTINUOUS
 62
3
 10
0.000349013655550623
 20
-0.00371983987452773
 30
0.0
 11
0.000349013655549957
 21
4.99628019312546
 31
0.0
  0
LINE
  8
3
  6
CONTINUOUS
 62
3
 10
0.000349013655549957
 20
4.99628019312546
 30
0.0
 11
1.50034902355555
 21
4.99628019312546
 31
0.0
  0
LINE
  8
3
  6
CONTINUOUS
 62
3
 10
3.25034902355555
 20
4.99628019312546
 30
0.0
 11
3.25034902355555
 21
-0.00371983987452773
 31
0.0
  0
LINE
  8
3
  6
CONTINUOUS
 62
3
 10
3.25034902355555
 20
-0.00371983987452773
 30
0.0
 11
1.75034901365555
 21
-0.00371983987452773
 31
0.0
  0
LINE
  8
3
  6
CONTINUOUS
 62
3
 10
1.75034901365555
 20
-0.00371983987452773
 30
0.0
 11
1.75034901365555
 21
4.99628019312546
 31
0.0
  0
LINE
  8
3
  6
CONTINUOUS
 62
3
 10
1.75034901365555
 20
4.99628019312546
 30
0.0
 11
3.25034902355555
 21
4.99628019312546
 31
0.0
  0
LINE
  8
3
  6
CONTINUOUS
 62
3
 10
5.00034902355555
 20
4.99628019312546
 30
0.0
 11
5.00034902355555
 21
-0.00371983987452773
 31
0.0
  0
LINE
  8
3
  6
CONTINUOUS
 62
3
 10
5.00034902355555
 20
-0.00371983987452773
 30
0.0
 11
3.50034901365555
 21
-0.00371983987452773
 31
0.0
  0
LINE
  8
3
  6
CONTINUOUS
 62
3
 10
3.50034901365555
 20
-0.00371983987452773
 30
0.0
 11
3.50034901365555
 21
4.99628019312546
 31
0.0
  0
LINE
  8
3
  6
CONTINUOUS
 62
3
 10
3.50034901365555
 20
4.99628019312546
 30
0.0
 11
5.00034902355555
 21
4.99628019312546
 31
0.0
  0
LINE
  8
3
  6
CONTINUOUS
 62
3
 10
6.75034902355555
 20
4.99628019312546
 30
0.0
 11
6.75034902355555
 21
-0.00371983987452773
 31
0.0
  0
LINE
  8
3
  6
CONTINUOUS
 62
3
 10
6.75034902355555
 20
-0.00371983987452773
 30
0.0
 11
5.25034901365555
 21
-0.00371983987452773
 31
0.0
  0
LINE
  8
3
  6
CONTINUOUS
 62
3
 10
5.25034901365555
 20
-0.00371983987452773
 30
0.0
 11
5.25034901365555
 21
4.99628019312546
 31
0.0
  0
LINE
  8
3
  6
CONTINUOUS
 62
3
 10
5.25034901365555
 20
4.99628019312546
 30
0.0
 11
6.75034902355555
 21
4.99628019312546
 31
0.0
  0
LINE
  8
3
  6
CONTINUOUS
 62
3
 10
8.50034902355555
 20
4.99628019312546
 30
0.0
 11
8.50034902355555
 21
-0.00371983987452773
 31
0.0
  0
LINE
  8
3
  6
CONTINUOUS
 62
3
 10
8.50034902355555
 20
-0.00371983987452773
 30
0.0
 11
7.00034901365555
 21
-0.00371983987452773
 31
0.0
  0
LINE
  8
3
  6
CONTINUOUS
 62
3
 10
7.00034901365555
 20
-0.00371983987452773
 30
0.0
 11
7.00034901365555
 21
4.99628019312546
 31
0.0
  0
LINE
  8
3
  6
CONTINUOUS
 62
3
 10
7.00034901365555
 20
4.99628019312546
 30
0.0
 11
8.50034902355555
 21
4.99628019312546
 31
0.0
  0
LINE
  8
3
  6
CONTINUOUS
 62
3
 10
10.2503490235555
 20
4.99628019312546
 30
0.0
 11
10.2503490235555
 21
-0.00371983987452773
 31
0.0
  0
LINE
  8
3
  6
CONTINUOUS
 62
3
 10
10.2503490235555
 20
-0.00371983987452773
 30
0.0
 11
8.75034901365555
 21
-0.00371983987452773
 31
0.0
  0
LINE
  8
3
  6
CONTINUOUS
 62
3
 10
8.75034901365555
 20
-0.00371983987452773
 30
0.0
 11
8.75034901365555
 21
4.99628019312546
 31
0.0
  0
LINE
  8
3
  6
CONTINUOUS
 62
3
 10
8.75034901365555
 20
4.99628019312546
 30
0.0
 11
10.2503490235555
 21
4.99628019312546
 31
0.0
  0
LINE
  8
3
  6
CONTINUOUS
 62
3
 10
12.0003490235555
 20
4.99628019312546
 30
0.0
 11
12.0003490235555
 21
-0.00371983987452773
 31
0.0
  0
LINE
  8
3
  6
CONTINUOUS
 62
3
 10
12.0003490235555
 20
-0.00371983987452773
 30
0.0
 11
10.5003490136555
 21
-0.00371983987452773
 31
0.0
  0
LINE
  8
3
  6
CONTINUOUS
 62
3
 10
10.5003490136555
 20
-0.00371983987452773
 30
0.0
 11
10.5003490136555
 21
4.99628019312546
 31
0.0
  0
LINE
  8
3
  6
CONTINUOUS
 62
3
 10
10.5003490136555
 20
4.99628019312546
 30
0.0
 11
12.0003490235555
 21
4.99628019312546
 31
0.0
  0
LINE
  8
3
  6
CONTINUOUS
 62
3
 10
13.7503490235555
 20
4.99628019312546
 30
0.0
 11
13.7503490235555
 21
-0.00371983987452773
 31
0.0
  0
LINE
  8
3
  6
CONTINUOUS
 62
3
 10
13.7503490235555
 20
-0.00371983987452773
 30
0.0
 11
12.2503490136555
 21
-0.00371983987452773
 31
0.0
  0
LINE
  8
3
  6
CONTINUOUS
 62
3
 10
12.2503490136555
 20
-0.00371983987452773
 30
0.0
 11
12.2503490136555
 21
4.99628019312546
 31
0.0
  0
LINE
  8
3
  6
CONTINUOUS
 62
3
 10
12.2503490136555
 20
4.99628019312546
 30
0.0
 11
13.7503490235555
 21
4.99628019312546
 31
0.0
  0
LINE
  8
3
  6
CONTINUOUS
 62
3
 10
15.5003490235555
 20
4.99628019312546
 30
0.0
 11
15.5003490235555
 21
-0.00371983987452773
 31
0.0
  0
LINE
  8
3
  6
CONTINUOUS
 62
3
 10
15.5003490235555
 20
-0.00371983987452773
 30
0.0
 11
14.0003490136555
 21
-0.00371983987452773
 31
0.0
  0
LINE
  8
3
  6
CONTINUOUS
 62
3
 10
14.0003490136555
 20
-0.00371983987452773
 30
0.0
 11
14.0003490136555
 21
4.99628019312546
 31
0.0
  0
LINE
  8
3
  6
CONTINUOUS
 62
3
 10
14.0003490136555
 20
4.99628019312546
 30
0.0
 11
15.5003490235555
 21
4.99628019312546
 31
0.0
  0
LINE
  8
3
  6
CONTINUOUS
 62
3
 10
17.2503490235555
 20
4.99628019312546
 30
0.0
 11
17.2503490235555
 21
-0.00371983987452773
 31
0.0
  0
LINE
  8
3
  6
CONTINUOUS
 62
3
 10
17.2503490235555
 20
-0.00371983987452773
 30
0.0
 11
15.7503490136555
 21
-0.00371983987452773
 31
0.0
  0
LINE
  8
3
  6
CONTINUOUS
 62
3
 10
15.7503490136555
 20
-0.00371983987452773
 30
0.0
 11
15.7503490136555
 21
4.99628019312546
 31
0.0
  0
LINE
  8
3
  6
CONTINUOUS
 62
3
 10
15.7503490136555
 20
4.99628019312546
 30
0.0
 11
17.2503490235555
 21
4.99628019312546
 31
0.0
  0
LINE
  8
3
  6
CONTINUOUS
 62
3
 10
19.0003490235555
 20
4.99628019312546
 30
0.0
 11
19.0003490235555
 21
-0.00371983987452773
 31
0.0
  0
LINE
  8
3
  6
CONTINUOUS
 62
3
 10
19.0003490235555
 20
-0.00371983987452773
 30
0.0
 11
17.5003490136555
 21
-0.00371983987452773
 31
0.0
  0
LINE
  8
3
  6
CONTINUOUS
 62
3
 10
17.5003490136555
 20
-0.00371983987452773
 30
0.0
 11
17.5003490136555
 21
4.99628019312546
 31
0.0
  0
LINE
  8
3
  6
CONTINUOUS
 62
3
 10
17.5003490136555
 20
4.99628019312546
 30
0.0
 11
19.0003490235555
 21
4.99628019312546
 31
0.0
  0
LINE
  8
3
  6
CONTINUOUS
 62
3
 10
20.7503490235555
 20
4.99628019312546
 30
0.0
 11
20.7503490235555
 21
-0.00371983987452773
 31
0.0
  0
LINE
  8
3
  6
CONTINUOUS
 62
3
 10
20.7503490235555
 20
-0.00371983987452773
 30
0.0
 11
19.2503490136555
 21
-0.00371983987452773
 31
0.0
  0
LINE
  8
3
  6
CONTINUOUS
 62
3
 10
19.2503490136555
 20
-0.00371983987452773
 30
0.0
 11
19.2503490136555
 21
4.99628019312546
 31
0.0
  0
LINE
  8
3
  6
CONTINUOUS
 62
3
 10
19.2503490136555
 20
4.99628019312546
 30
0.0
 11
20.7503490235555
 21
4.99628019312546
 31
0.0
  0
LINE
  8
3
  6
CONTINUOUS
 62
3
 10
21.0003490136555
 20
4.99628019312546
 30
0.0
 11
22.5003490235555
 21
4.99628019312546
 31
0.0
  0
LINE
  8
3
  6
CONTINUOUS
 62
3
 10
22.5003490235555
 20
4.99628019312546
 30
0.0
 11
22.5003490235555
 21
-0.00371983987452773
 31
0.0
  0
LINE
  8
3
  6
CONTINUOUS
 62
3
 10
22.5003490235555
 20
-0.00371983987452773
 30
0.0
 11
21.0003490136555
 21
-0.00371983987452773
 31
0.0
  0
LINE
  8
3
  6
CONTINUOUS
 62
3
 10
21.0003490136555
 20
-0.00371983987452773
 30
0.0
 11
21.0003490136555
 21
4.99628019312546
 31
0.0
  0
ARC
  8
3
  6
CONTINUOUS
 62
3
 10
21.7585171336965
 20
10.1138305173519
 30
0.0
 40
0.12999999998868
 50
275.624999995215
 51
6.01254601427608E-9
  0
ARC
  8
3
  6
CONTINUOUS
 62
3
 10
21.7585171336852
 20
10.1138305173655
 30
0.0
 40
0.130000000000003
 50
359.999999999999
 51
180
  0
ARC
  8
3
  6
CONTINUOUS
 62
3
 10
21.7585171336348
 20
10.1138305173065
 30
0.0
 40
0.129999999949614
 50
179.999999974007
 51
275.625000024241
  0
ARC
  8
3
  6
CONTINUOUS
 62
3
 10
21.7585171336706
 20
9.61383051725467
 30
0.0
 40
0.129999999889167
 50
254.999999993569
 51
270.000000006431
  0
ARC
  8
3
  6
CONTINUOUS
 62
3
 10
21.7585171336852
 20
9.61383051736551
 30
0.0
 40
0.130000000000003
 50
270
 51
90
  0
ARC
  8
3
  6
CONTINUOUS
 62
3
 10
21.7585171336823
 20
9.61383051736589
 30
0.0
 40
0.129999999999618
 50
89.9999999987135
 51
255.000000001286
  0
ARC
  8
3
  6
CONTINUOUS
 62
3
 10
21.7585171336706
 20
9.11383051725467
 30
0.0
 40
0.129999999889167
 50
254.999999993569
 51
270.000000006431
  0
ARC
  8
3
  6
CONTINUOUS
 62
3
 10
21.7585171336852
 20
9.11383051736551
 30
0.0
 40
0.130000000000003
 50
270
 51
90
  0
ARC
  8
3
  6
CONTINUOUS
 62
3
 10
21.7585171336823
 20
9.11383051736589
 30
0.0
 40
0.129999999999618
 50
89.9999999987135
 51
255.000000001286
  0
ARC
  8
3
  6
CONTINUOUS
 62
3
 10
21.7585171337379
 20
8.61383051735695
 30
0.0
 40
0.130000000052669
 50
167.812500000187
 51
179.999999996231
  0
ARC
  8
3
  6
CONTINUOUS
 62
3
 10
21.7585171336852
 20
8.61383051736551
 30
0.0
 40
0.130000000000003
 50
179.999999999999
 51
359.999999999999
  0
ARC
  8
3
  6
CONTINUOUS
 62
3
 10
21.7585171336874
 20
8.61383051738369
 30
0.0
 40
0.129999999997749
 50
359.999999991986
 51
167.812500007013
  0
ARC
  8
3
  6
CONTINUOUS
 62
3
 10
12.5085171336685
 20
8.61383051738399
 30
0.0
 40
0.129999999983268
 50
91.4062499930329
 51
180.000000008145
  0
ARC
  8
3
  6
CONTINUOUS
 62
3
 10
12.5085171336852
 20
8.61383051736551
 30
0.0
 40
0.129999999999999
 50
179.999999999999
 51
359.999999999999
  0
ARC
  8
3
  6
CONTINUOUS
 62
3
 10
12.5085171337023
 20
8.6138305173852
 30
0.0
 40
0.129999999982886
 50
359.99999999132
 51
91.4062500079575
  0
ARC
  8
3
  6
CONTINUOUS
 62
3
 10
12.5085171336685
 20
9.11383051738399
 30
0.0
 40
0.129999999983268
 50
91.4062499930329
 51
180.000000008145
  0
ARC
  8
3
  6
CONTINUOUS
 62
3
 10
12.5085171336852
 20
9.11383051736551
 30
0.0
 40
0.129999999999999
 50
179.999999999999
 51
359.999999999999
  0
ARC
  8
3
  6
CONTINUOUS
 62
3
 10
12.5085171337023
 20
9.1138305173852
 30
0.0
 40
0.129999999982886
 50
359.99999999132
 51
91.4062500079575
  0
ARC
  8
3
  6
CONTINUOUS
 62
3
 10
12.5085171336685
 20
9.61383051738399
 30
0.0
 40
0.129999999983268
 50
91.4062499930329
 51
180.000000008145
  0
ARC
  8
3
  6
CONTINUOUS
 62
3
 10
12.5085171336852
 20
9.61383051736551
 30
0.0
 40
0.129999999999999
 50
179.999999999999
 51
359.999999999999
  0
ARC
  8
3
  6
CONTINUOUS
 62
3
 10
12.5085171337023
 20
9.6138305173852
 30
0.0
 40
0.129999999982886
 50
359.99999999132
 51
91.4062500079575
  0
ARC
  8
3
  6
CONTINUOUS
 62
3
 10
12.5085171336554
 20
10.1138305173874
 30
0.0
 40
0.129999999970232
 50
133.593749996764
 51
180.000000009657
  0
ARC
  8
3
  6
CONTINUOUS
 62
3
 10
12.5085171336852
 20
10.1138305173655
 30
0.0
 40
0.129999999999999
 50
179.999999999999
 51
359.999999999999
  0
ARC
  8
3
  6
CONTINUOUS
 62
3
 10
12.5085171336897
 20
10.1138305173852
 30
0.0
 40
0.129999999995473
 50
359.999999991313
 51
133.593750007041
  0
LINE
  8
3
  6
CONTINUOUS
 62
3
 10
11.5085171336852
 20
11.4917832732655
 30
0.0
 11
22.7585171336852
 21
11.4917832732655
 31
0.0
  0
LINE
  8
3
  6
CONTINUOUS
 62
3
 10
22.7585171336852
 20
11.4917832732655
 30
0.0
 11
22.7585171336852
 21
5.49178327326551
 31
0.0
  0
LINE
  8
3
  6
CONTINUOUS
 62
3
 10
22.7585171336852
 20
5.49178327326551
 30
0.0
 11
11.5085171336852
 21
5.49178327326551
 31
0.0
  0
LINE
  8
3
  6
CONTINUOUS
 62
3
 10
11.5085171336852
 20
5.49178327326551
 30
0.0
 11
11.5085171336852
 21
11.4917832732655
 31
0.0
  0
ARC
  8
3
  6
CONTINUOUS
 62
3
 10
1.00851713373295
 20
10.1138305173289
 30
0.0
 40
0.129999999952245
 50
271.406249980354
 51
1.61503668670508E-8
  0
ARC
  8
3
  6
CONTINUOUS
 62
3
 10
1.00851713368519
 20
10.1138305173655
 30
0.0
 40
0.129999999999999
 50
359.999999999999
 51
180
  0
ARC
  8
3
  6
CONTINUOUS
 62
3
 10
1.00851713366217
 20
10.1138305173519
 30
0.0
 40
0.129999999976975
 50
179.999999993986
 51
271.406250011291
  0
ARC
  8
3
  6
CONTINUOUS
 62
3
 10
1.00851713373295
 20
9.61383051732886
 30
0.0
 40
0.129999999952245
 50
271.406249980354
 51
1.61503668670508E-8
  0
ARC
  8
3
  6
CONTINUOUS
 62
3
 10
1.00851713368519
 20
9.61383051736551
 30
0.0
 40
0.129999999999999
 50
359.999999999999
 51
180
  0
ARC
  8
3
  6
CONTINUOUS
 62
3
 10
1.00851713366217
 20
9.61383051735186
 30
0.0
 40
0.129999999976975
 50
179.999999993986
 51
271.406250011291
  0
ARC
  8
3
  6
CONTINUOUS
 62
3
 10
1.00851713373295
 20
9.11383051732886
 30
0.0
 40
0.129999999952245
 50
271.406249980354
 51
1.61503668670508E-8
  0
ARC
  8
3
  6
CONTINUOUS
 62
3
 10
1.00851713368519
 20
9.11383051736551
 30
0.0
 40
0.129999999999999
 50
359.999999999999
 51
180
  0
ARC
  8
3
  6
CONTINUOUS
 62
3
 10
1.00851713366217
 20
9.11383051735186
 30
0.0
 40
0.129999999976975
 50
179.999999993986
 51
271.406250011291
  0
ARC
  8
3
  6
CONTINUOUS
 62
3
 10
1.0085171344821
 20
8.61383051736393
 30
0.0
 40
0.129999999203088
 50
358.124999989191
 51
6.93348794694324E-10
  0
ARC
  8
3
  6
CONTINUOUS
 62
3
 10
1.00851713368519
 20
8.61383051736551
 30
0.0
 40
0.129999999999999
 50
359.999999999999
 51
180
  0
ARC
  8
3
  6
CONTINUOUS
 62
3
 10
1.00851713368491
 20
8.61383051735965
 30
0.0
 40
0.129999999999716
 50
179.999999997421
 51
358.125000002571
  0
ARC
  8
3
  6
CONTINUOUS
 62
3
 10
10.2585171336685
 20
8.61383051738399
 30
0.0
 40
0.129999999983272
 50
91.4062499930321
 51
180.000000008145
  0
ARC
  8
3
  6
CONTINUOUS
 62
3
 10
10.2585171336852
 20
8.61383051736551
 30
0.0
 40
0.130000000000003
 50
179.999999999999
 51
359.999999999999
  0
ARC
  8
3
  6
CONTINUOUS
 62
3
 10
10.2585171337023
 20
8.6138305173852
 30
0.0
 40
0.12999999998289
 50
359.99999999132
 51
91.4062500079566
  0
ARC
  8
3
  6
CONTINUOUS
 62
3
 10
10.2585171336685
 20
9.11383051738399
 30
0.0
 40
0.129999999983272
 50
91.4062499930321
 51
180.000000008145
  0
ARC
  8
3
  6
CONTINUOUS
 62
3
 10
10.2585171336852
 20
9.11383051736551
 30
0.0
 40
0.130000000000003
 50
179.999999999999
 51
359.999999999999
  0
ARC
  8
3
  6
CONTINUOUS
 62
3
 10
10.2585171337023
 20
9.1138305173852
 30
0.0
 40
0.12999999998289
 50
359.99999999132
 51
91.4062500079566
  0
ARC
  8
3
  6
CONTINUOUS
 62
3
 10
10.2585171336685
 20
9.61383051738399
 30
0.0
 40
0.129999999983272
 50
91.4062499930321
 51
180.000000008145
  0
ARC
  8
3
  6
CONTINUOUS
 62
3
 10
10.2585171336852
 20
9.61383051736551
 30
0.0
 40
0.130000000000003
 50
179.999999999999
 51
359.999999999999
  0
ARC
  8
3
  6
CONTINUOUS
 62
3
 10
10.2585171337023
 20
9.6138305173852
 30
0.0
 40
0.12999999998289
 50
359.99999999132
 51
91.4062500079566
  0
ARC
  8
3
  6
CONTINUOUS
 62
3
 10
10.2585171336748
 20
10.1138305173979
 30
0.0
 40
0.129999999989617
 50
61.8749999909075
 51
180.000000014265
  0
ARC
  8
3
  6
CONTINUOUS
 62
3
 10
10.2585171336852
 20
10.1138305173655
 30
0.0
 40
0.130000000000003
 50
179.999999999999
 51
359.999999999999
  0
ARC
  8
3
  6
CONTINUOUS
 62
3
 10
10.2585171337163
 20
10.1138305173992
 30
0.0
 40
0.12999999996889
 50
359.999999985152
 51
61.8750000067635
  0
LINE
  8
3
  6
CONTINUOUS
 62
3
 10
11.2585171336852
 20
11.4917832732655
 30
0.0
 11
11.2585171336852
 21
5.49178327326551
 31
0.0
  0
LINE
  8
3
  6
CONTINUOUS
 62
3
 10
11.2585171336852
 20
5.49178327326551
 30
0.0
 11
0.00851713368519214
 21
5.49178327326551
 31
0.0
  0
LINE
  8
3
  6
CONTINUOUS
 62
3
 10
0.00851713368519214
 20
5.49178327326551
 30
0.0
 11
0.00851713368519214
 21
11.4917832732655
 31
0.0
  0
LINE
  8
3
  6
CONTINUOUS
 62
3
 10
0.00851713368519214
 20
11.4917832732655
 30
0.0
 11
11.2585171336852
 21
11.4917832732655
 31
0.0
  0
ARC
  8
3
  6
CONTINUOUS
 62
3
 10
1.0085171336878
 20
16.3638305173587
 30
0.0
 40
0.129999999997392
 50
264.374999996508
 51
3.01685153200859E-9
  0
ARC
  8
3
  6
CONTINUOUS
 62
3
 10
1.00851713368519
 20
16.3638305173655
 30
0.0
 40
0.129999999999999
 50
359.999999999999
 51
180
  0
ARC
  8
3
  6
CONTINUOUS
 62
3
 10
1.00851713367813
 20
16.3638305173551
 30
0.0
 40
0.129999999992939
 50
179.99999999543
 51
264.375000000596
  0
ARC
  8
3
  6
CONTINUOUS
 62
3
 10
1.0085171336706
 20
15.8638305172547
 30
0.0
 40
0.129999999889163
 50
254.999999993568
 51
270.000000006431
  0
ARC
  8
3
  6
CONTINUOUS
 62
3
 10
1.00851713368519
 20
15.8638305173655
 30
0.0
 40
0.129999999999999
 50
270
 51
90
  0
ARC
  8
3
  6
CONTINUOUS
 62
3
 10
1.00851713368227
 20
15.8638305173659
 30
0.0
 40
0.129999999999615
 50
89.9999999987136
 51
255.000000001286
  0
ARC
  8
3
  6
CONTINUOUS
 62
3
 10
1.0085171336706
 20
15.3638305172547
 30
0.0
 40
0.129999999889163
 50
254.999999993568
 51
270.000000006431
  0
ARC
  8
3
  6
CONTINUOUS
 62
3
 10
1.00851713368519
 20
15.3638305173655
 30
0.0
 40
0.129999999999999
 50
270
 51
90
  0
ARC
  8
3
  6
CONTINUOUS
 62
3
 10
1.00851713368227
 20
15.3638305173659
 30
0.0
 40
0.129999999999615
 50
89.9999999987136
 51
255.000000001286
  0
ARC
  8
3
  6
CONTINUOUS
 62
3
 10
1.00851713368455
 20
14.8638305173767
 30
0.0
 40
0.129999999999361
 50
11.2499999950313
 51
180.000000004919
  0
ARC
  8
3
  6
CONTINUOUS
 62
3
 10
1.00851713368519
 20
14.8638305173655
 30
0.0
 40
0.129999999999999
 50
179.999999999999
 51
359.999999999999
  0
ARC
  8
3
  6
CONTINUOUS
 62
3
 10
1.00851713378576
 20
14.8638305173801
 30
0.0
 40
0.129999999899435
 50
359.999999993569
 51
11.2500000022507
  0
ARC
  8
3
  6
CONTINUOUS
 62
3
 10
10.2585171336685
 20
14.863830517384
 30
0.0
 40
0.129999999983272
 50
91.4062499930321
 51
180.000000008145
  0
ARC
  8
3
  6
CONTINUOUS
 62
3
 10
10.2585171336852
 20
14.8638305173655
 30
0.0
 40
0.130000000000003
 50
179.999999999999
 51
359.999999999999
  0
ARC
  8
3
  6
CONTINUOUS
 62
3
 10
10.2585171337023
 20
14.8638305173852
 30
0.0
 40
0.12999999998289
 50
359.99999999132
 51
91.4062500079566
  0
ARC
  8
3
  6
CONTINUOUS
 62
3
 10
10.2585171336685
 20
15.363830517384
 30
0.0
 40
0.129999999983272
 50
91.4062499930321
 51
180.000000008145
  0
ARC
  8
3
  6
CONTINUOUS
 62
3
 10
10.2585171336852
 20
15.3638305173655
 30
0.0
 40
0.130000000000003
 50
179.999999999999
 51
359.999999999999
  0
ARC
  8
3
  6
CONTINUOUS
 62
3
 10
10.2585171337023
 20
15.3638305173852
 30
0.0
 40
0.12999999998289
 50
359.99999999132
 51
91.4062500079566
  0
ARC
  8
3
  6
CONTINUOUS
 62
3
 10
10.2585171336685
 20
15.863830517384
 30
0.0
 40
0.129999999983272
 50
91.4062499930321
 51
180.000000008145
  0
ARC
  8
3
  6
CONTINUOUS
 62
3
 10
10.2585171336852
 20
15.8638305173655
 30
0.0
 40
0.130000000000003
 50
179.999999999999
 51
359.999999999999
  0
ARC
  8
3
  6
CONTINUOUS
 62
3
 10
10.2585171337023
 20
15.8638305173852
 30
0.0
 40
0.12999999998289
 50
359.99999999132
 51
91.4062500079566
  0
ARC
  8
3
  6
CONTINUOUS
 62
3
 10
10.2585171336748
 20
16.3638305173979
 30
0.0
 40
0.129999999989619
 50
61.874999990909
 51
180.000000014266
  0
ARC
  8
3
  6
CONTINUOUS
 62
3
 10
10.2585171336852
 20
16.3638305173655
 30
0.0
 40
0.130000000000003
 50
179.999999999999
 51
359.999999999999
  0
ARC
  8
3
  6
CONTINUOUS
 62
3
 10
10.2585171337163
 20
16.3638305173992
 30
0.0
 40
0.129999999968893
 50
359.999999985151
 51
61.8750000067627
  0
LINE
  8
3
  6
CONTINUOUS
 62
3
 10
11.2585171336852
 20
17.7417832732655
 30
0.0
 11
11.2585171336852
 21
11.7417832732655
 31
0.0
  0
LINE
  8
3
  6
CONTINUOUS
 62
3
 10
11.2585171336852
 20
11.7417832732655
 30
0.0
 11
0.00851713368519214
 21
11.7417832732655
 31
0.0
  0
LINE
  8
3
  6
CONTINUOUS
 62
3
 10
0.00851713368519214
 20
11.7417832732655
 30
0.0
 11
0.00851713368519214
 21
17.7417832732655
 31
0.0
  0
LINE
  8
3
  6
CONTINUOUS
 62
3
 10
0.00851713368519214
 20
17.7417832732655
 30
0.0
 11
11.2585171336852
 21
17.7417832732655
 31
0.0
  0
ARC
  8
3
  6
CONTINUOUS
 62
3
 10
21.7585171337329
 20
16.3638305173289
 30
0.0
 40
0.129999999952248
 50
271.406249980354
 51
1.61498834227392E-8
  0
ARC
  8
3
  6
CONTINUOUS
 62
3
 10
21.7585171336852
 20
16.3638305173655
 30
0.0
 40
0.130000000000003
 50
359.999999999999
 51
180
  0
ARC
  8
3
  6
CONTINUOUS
 62
3
 10
21.7585171336622
 20
16.3638305173519
 30
0.0
 40
0.129999999976978
 50
179.999999993987
 51
271.406250011291
  0
ARC
  8
3
  6
CONTINUOUS
 62
3
 10
21.7585171337329
 20
15.8638305173289
 30
0.0
 40
0.129999999952248
 50
271.406249980354
 51
1.61502714504103E-8
  0
ARC
  8
3
  6
CONTINUOUS
 62
3
 10
21.7585171336852
 20
15.8638305173655
 30
0.0
 40
0.130000000000003
 50
359.999999999999
 51
180
  0
ARC
  8
3
  6
CONTINUOUS
 62
3
 10
21.7585171336622
 20
15.8638305173519
 30
0.0
 40
0.129999999976979
 50
179.999999993986
 51
271.40625001129
  0
ARC
  8
3
  6
CONTINUOUS
 62
3
 10
21.7585171337329
 20
15.3638305173289
 30
0.0
 40
0.129999999952248
 50
271.406249980354
 51
1.61502714504103E-8
  0
ARC
  8
3
  6
CONTINUOUS
 62
3
 10
21.7585171336852
 20
15.3638305173655
 30
0.0
 40
0.130000000000003
 50
359.999999999999
 51
180
  0
ARC
  8
3
  6
CONTINUOUS
 62
3
 10
21.7585171336622
 20
15.3638305173519
 30
0.0
 40
0.129999999976979
 50
179.999999993986
 51
271.40625001129
  0
ARC
  8
3
  6
CONTINUOUS
 62
3
 10
21.7585171331113
 20
14.8638305173568
 30
0.0
 40
0.129999999426073
 50
178.124999987901
 51
179.999999996183
  0
ARC
  8
3
  6
CONTINUOUS
 62
3
 10
21.7585171336852
 20
14.8638305173655
 30
0.0
 40
0.130000000000003
 50
179.999999999999
 51
359.999999999999
  0
ARC
  8
3
  6
CONTINUOUS
 62
3
 10
21.7585171336857
 20
14.8638305173772
 30
0.0
 40
0.129999999999517
 50
359.999999994865
 51
178.125000005131
  0
ARC
  8
3
  6
CONTINUOUS
 62
3
 10
12.5085171336685
 20
14.863830517384
 30
0.0
 40
0.129999999983268
 50
91.4062499930329
 51
180.000000008145
  0
ARC
  8
3
  6
CONTINUOUS
 62
3
 10
12.5085171336852
 20
14.8638305173655
 30
0.0
 40
0.129999999999999
 50
179.999999999999
 51
359.999999999999
  0
ARC
  8
3
  6
CONTINUOUS
 62
3
 10
12.5085171337023
 20
14.8638305173852
 30
0.0
 40
0.129999999982886
 50
359.99999999132
 51
91.4062500079575
  0
ARC
  8
3
  6
CONTINUOUS
 62
3
 10
12.5085171336685
 20
15.363830517384
 30
0.0
 40
0.129999999983268
 50
91.4062499930329
 51
180.000000008145
  0
ARC
  8
3
  6
CONTINUOUS
 62
3
 10
12.5085171336852
 20
15.3638305173655
 30
0.0
 40
0.129999999999999
 50
179.999999999999
 51
359.999999999999
  0
ARC
  8
3
  6
CONTINUOUS
 62
3
 10
12.5085171337023
 20
15.3638305173852
 30
0.0
 40
0.129999999982886
 50
359.99999999132
 51
91.4062500079575
  0
ARC
  8
3
  6
CONTINUOUS
 62
3
 10
12.5085171336685
 20
15.863830517384
 30
0.0
 40
0.129999999983268
 50
91.4062499930329
 51
180.000000008145
  0
ARC
  8
3
  6
CONTINUOUS
 62
3
 10
12.5085171336852
 20
15.8638305173655
 30
0.0
 40
0.129999999999999
 50
179.999999999999
 51
359.999999999999
  0
ARC
  8
3
  6
CONTINUOUS
 62
3
 10
12.5085171337023
 20
15.8638305173852
 30
0.0
 40
0.129999999982886
 50
359.99999999132
 51
91.4062500079575
  0
ARC
  8
3
  6
CONTINUOUS
 62
3
 10
12.5085171336554
 20
16.3638305173874
 30
0.0
 40
0.129999999970233
 50
133.593749996765
 51
180.000000009657
  0
ARC
  8
3
  6
CONTINUOUS
 62
3
 10
12.5085171336852
 20
16.3638305173655
 30
0.0
 40
0.129999999999999
 50
179.999999999999
 51
359.999999999999
  0
ARC
  8
3
  6
CONTINUOUS
 62
3
 10
12.5085171336897
 20
16.3638305173852
 30
0.0
 40
0.129999999995474
 50
359.999999991313
 51
133.593750007041
  0
LINE
  8
3
  6
CONTINUOUS
 62
3
 10
11.5085171336852
 20
17.7417832732655
 30
0.0
 11
22.7585171336852
 21
17.7417832732655
 31
0.0
  0
LINE
  8
3
  6
CONTINUOUS
 62
3
 10
22.7585171336852
 20
17.7417832732655
 30
0.0
 11
22.7585171336852
 21
11.7417832732655
 31
0.0
  0
LINE
  8
3
  6
CONTINUOUS
 62
3
 10
22.7585171336852
 20
11.7417832732655
 30
0.0
 11
11.5085171336852
 21
11.7417832732655
 31
0.0
  0
LINE
  8
3
  6
CONTINUOUS
 62
3
 10
11.5085171336852
 20
11.7417832732655
 30
0.0
 11
11.5085171336852
 21
17.7417832732655
 31
0.0
  0
ARC
  8
3
  6
CONTINUOUS
 62
3
 10
21.7585171336685
 20
21.113830517384
 30
0.0
 40
0.129999999983275
 50
91.4062499930332
 51
180.000000008144
  0
ARC
  8
3
  6
CONTINUOUS
 62
3
 10
21.7585171336852
 20
21.1138305173655
 30
0.0
 40
0.130000000000003
 50
179.999999999999
 51
359.999999999999
  0
ARC
  8
3
  6
CONTINUOUS
 62
3
 10
21.7585171337023
 20
21.1138305173852
 30
0.0
 40
0.129999999982888
 50
359.999999991319
 51
91.4062500079574
  0
ARC
  8
3
  6
CONTINUOUS
 62
3
 10
21.7585171336685
 20
21.613830517384
 30
0.0
 40
0.129999999983275
 50
91.4062499930332
 51
180.000000008144
  0
ARC
  8
3
  6
CONTINUOUS
 62
3
 10
21.7585171336852
 20
21.6138305173655
 30
0.0
 40
0.130000000000003
 50
179.999999999999
 51
359.999999999999
  0
ARC
  8
3
  6
CONTINUOUS
 62
3
 10
21.7585171337023
 20
21.6138305173852
 30
0.0
 40
0.129999999982888
 50
359.999999991319
 51
91.4062500079574
  0
ARC
  8
3
  6
CONTINUOUS
 62
3
 10
21.7585171336685
 20
22.113830517384
 30
0.0
 40
0.129999999983275
 50
91.4062499930332
 51
180.000000008144
  0
ARC
  8
3
  6
CONTINUOUS
 62
3
 10
21.7585171336852
 20
22.1138305173655
 30
0.0
 40
0.130000000000003
 50
179.999999999999
 51
359.999999999999
  0
ARC
  8
3
  6
CONTINUOUS
 62
3
 10
21.7585171337023
 20
22.1138305173852
 30
0.0
 40
0.129999999982888
 50
359.999999991319
 51
91.4062500079574
  0
ARC
  8
3
  6
CONTINUOUS
 62
3
 10
21.7585171331113
 20
22.6138305173568
 30
0.0
 40
0.129999999426065
 50
178.124999987901
 51
179.999999996182
  0
ARC
  8
3
  6
CONTINUOUS
 62
3
 10
21.7585171336852
 20
22.6138305173655
 30
0.0
 40
0.130000000000003
 50
179.999999999999
 51
359.999999999999
  0
ARC
  8
3
  6
CONTINUOUS
 62
3
 10
21.7585171336857
 20
22.6138305173772
 30
0.0
 40
0.129999999999517
 50
359.999999994865
 51
178.125000005131
  0
ARC
  8
3
  6
CONTINUOUS
 62
3
 10
12.5085171337329
 20
22.6138305173289
 30
0.0
 40
0.129999999952243
 50
271.406249980354
 51
1.61502778115197E-8
  0
ARC
  8
3
  6
CONTINUOUS
 62
3
 10
12.5085171336852
 20
22.6138305173655
 30
0.0
 40
0.129999999999999
 50
359.999999999999
 51
180
  0
ARC
  8
3
  6
CONTINUOUS
 62
3
 10
12.5085171336622
 20
22.6138305173519
 30
0.0
 40
0.129999999976976
 50
179.999999993987
 51
271.406250011291
  0
ARC
  8
3
  6
CONTINUOUS
 62
3
 10
12.5085171337329
 20
22.1138305173289
 30
0.0
 40
0.129999999952243
 50
271.406249980354
 51
1.61502778115197E-8
  0
ARC
  8
3
  6
CONTINUOUS
 62
3
 10
12.5085171336852
 20
22.1138305173655
 30
0.0
 40
0.129999999999999
 50
359.999999999999
 51
180
  0
ARC
  8
3
  6
CONTINUOUS
 62
3
 10
12.5085171336622
 20
22.1138305173519
 30
0.0
 40
0.129999999976976
 50
179.999999993987
 51
271.406250011291
  0
ARC
  8
3
  6
CONTINUOUS
 62
3
 10
12.5085171337329
 20
21.6138305173289
 30
0.0
 40
0.129999999952243
 50
271.406249980354
 51
1.61502778115197E-8
  0
ARC
  8
3
  6
CONTINUOUS
 62
3
 10
12.5085171336852
 20
21.6138305173655
 30
0.0
 40
0.129999999999999
 50
359.999999999999
 51
180
  0
ARC
  8
3
  6
CONTINUOUS
 62
3
 10
12.5085171336622
 20
21.6138305173519
 30
0.0
 40
0.129999999976976
 50
179.999999993987
 51
271.406250011291
  0
ARC
  8
3
  6
CONTINUOUS
 62
3
 10
12.5085171337114
 20
21.1138305173396
 30
0.0
 40
0.129999999973823
 50
251.718749985991
 51
1.14128161690424E-8
  0
ARC
  8
3
  6
CONTINUOUS
 62
3
 10
12.5085171336852
 20
21.1138305173655
 30
0.0
 40
0.129999999999999
 50
359.999999999999
 51
180
  0
ARC
  8
3
  6
CONTINUOUS
 62
3
 10
12.5085171336514
 20
21.1138305173514
 30
0.0
 40
0.129999999966176
 50
179.999999993773
 51
251.718750012727
  0
LINE
  8
3
  6
CONTINUOUS
 62
3
 10
11.5085171336852
 20
17.9917832732655
 30
0.0
 11
11.5085171336852
 21
23.9917832732655
 31
0.0
  0
LINE
  8
3
  6
CONTINUOUS
 62
3
 10
11.5085171336852
 20
23.9917832732655
 30
0.0
 11
22.7585171336852
 21
23.9917832732655
 31
0.0
  0
LINE
  8
3
  6
CONTINUOUS
 62
3
 10
22.7585171336852
 20
23.9917832732655
 30
0.0
 11
22.7585171336852
 21
17.9917832732655
 31
0.0
  0
LINE
  8
3
  6
CONTINUOUS
 62
3
 10
22.7585171336852
 20
17.9917832732655
 30
0.0
 11
11.5085171336852
 21
17.9917832732655
 31
0.0
  0
ARC
  8
3
  6
CONTINUOUS
 62
3
 10
10.2585171336965
 20
22.6138305173519
 30
0.0
 40
0.129999999988677
 50
275.624999995214
 51
6.01057407037358E-9
  0
ARC
  8
3
  6
CONTINUOUS
 62
3
 10
10.2585171336852
 20
22.6138305173655
 30
0.0
 40
0.130000000000003
 50
359.999999999999
 51
180
  0
ARC
  8
3
  6
CONTINUOUS
 62
3
 10
10.2585171336348
 20
22.6138305173065
 30
0.0
 40
0.129999999949612
 50
179.999999974009
 51
275.625000024242
  0
ARC
  8
3
  6
CONTINUOUS
 62
3
 10
10.2585171336706
 20
22.1138305172547
 30
0.0
 40
0.129999999889166
 50
254.999999993565
 51
270.000000006428
  0
ARC
  8
3
  6
CONTINUOUS
 62
3
 10
10.2585171336852
 20
22.1138305173655
 30
0.0
 40
0.130000000000003
 50
270
 51
90
  0
ARC
  8
3
  6
CONTINUOUS
 62
3
 10
10.2585171336823
 20
22.1138305173659
 30
0.0
 40
0.129999999999618
 50
89.9999999987136
 51
255.000000001286
  0
ARC
  8
3
  6
CONTINUOUS
 62
3
 10
10.2585171336706
 20
21.6138305172547
 30
0.0
 40
0.129999999889166
 50
254.999999993565
 51
270.000000006428
  0
ARC
  8
3
  6
CONTINUOUS
 62
3
 10
10.2585171336852
 20
21.6138305173655
 30
0.0
 40
0.130000000000003
 50
270
 51
90
  0
ARC
  8
3
  6
CONTINUOUS
 62
3
 10
10.2585171336823
 20
21.6138305173659
 30
0.0
 40
0.129999999999618
 50
89.9999999987136
 51
255.000000001286
  0
ARC
  8
3
  6
CONTINUOUS
 62
3
 10
10.2585171337378
 20
21.113830517357
 30
0.0
 40
0.130000000052659
 50
167.812500000186
 51
179.999999996232
  0
ARC
  8
3
  6
CONTINUOUS
 62
3
 10
10.2585171336852
 20
21.1138305173655
 30
0.0
 40
0.130000000000003
 50
179.999999999999
 51
359.999999999999
  0
ARC
  8
3
  6
CONTINUOUS
 62
3
 10
10.2585171336874
 20
21.1138305173837
 30
0.0
 40
0.129999999997749
 50
359.999999991985
 51
167.812500007013
  0
ARC
  8
3
  6
CONTINUOUS
 62
3
 10
1.00851713366846
 20
21.113830517384
 30
0.0
 40
0.129999999983266
 50
91.4062499930318
 51
180.000000008146
  0
ARC
  8
3
  6
CONTINUOUS
 62
3
 10
1.00851713368519
 20
21.1138305173655
 30
0.0
 40
0.129999999999999
 50
179.999999999999
 51
359.999999999999
  0
ARC
  8
3
  6
CONTINUOUS
 62
3
 10
1.0085171337023
 20
21.1138305173852
 30
0.0
 40
0.129999999982887
 50
359.99999999132
 51
91.4062500079572
  0
ARC
  8
3
  6
CONTINUOUS
 62
3
 10
1.00851713366846
 20
21.613830517384
 30
0.0
 40
0.129999999983266
 50
91.4062499930318
 51
180.000000008146
  0
ARC
  8
3
  6
CONTINUOUS
 62
3
 10
1.00851713368519
 20
21.6138305173655
 30
0.0
 40
0.129999999999999
 50
179.999999999999
 51
359.999999999999
  0
ARC
  8
3
  6
CONTINUOUS
 62
3
 10
1.0085171337023
 20
21.6138305173852
 30
0.0
 40
0.129999999982887
 50
359.99999999132
 51
91.4062500079572
  0
ARC
  8
3
  6
CONTINUOUS
 62
3
 10
1.00851713366846
 20
22.113830517384
 30
0.0
 40
0.129999999983266
 50
91.4062499930318
 51
180.000000008146
  0
ARC
  8
3
  6
CONTINUOUS
 62
3
 10
1.00851713368519
 20
22.1138305173655
 30
0.0
 40
0.129999999999999
 50
179.999999999999
 51
359.999999999999
  0
ARC
  8
3
  6
CONTINUOUS
 62
3
 10
1.0085171337023
 20
22.1138305173852
 30
0.0
 40
0.129999999982887
 50
359.99999999132
 51
91.4062500079572
  0
ARC
  8
3
  6
CONTINUOUS
 62
3
 10
1.00851713365542
 20
22.6138305173874
 30
0.0
 40
0.129999999970224
 50
133.593749996762
 51
180.000000009656
  0
ARC
  8
3
  6
CONTINUOUS
 62
3
 10
1.00851713368519
 20
22.6138305173655
 30
0.0
 40
0.129999999999999
 50
179.999999999999
 51
359.999999999999
  0
ARC
  8
3
  6
CONTINUOUS
 62
3
 10
1.00851713368972
 20
22.6138305173852
 30
0.0
 40
0.129999999995472
 50
359.999999991314
 51
133.593750007042
  0
LINE
  8
3
  6
CONTINUOUS
 62
3
 10
0.00851713368519214
 20
23.9917832732655
 30
0.0
 11
11.2585171336852
 21
23.9917832732655
 31
0.0
  0
LINE
  8
3
  6
CONTINUOUS
 62
3
 10
11.2585171336852
 20
23.9917832732655
 30
0.0
 11
11.2585171336852
 21
17.9917832732655
 31
0.0
  0
LINE
  8
3
  6
CONTINUOUS
 62
3
 10
11.2585171336852
 20
17.9917832732655
 30
0.0
 11
0.00851713368519214
 21
17.9917832732655
 31
0.0
  0
LINE
  8
3
  6
CONTINUOUS
 62
3
 10
0.00851713368519214
 20
17.9917832732655
 30
0.0
 11
0.00851713368519214
 21
23.9917832732655
 31
0.0
  0
LINE
  8
9
  6
CONTINUOUS
 62
9
 10
1.50034902355555
 20
5.14628019312546
 30
0.0
 11
1.50034902355555
 21
4.99628019312546
 31
0.0
  0
LINE
  8
9
  6
CONTINUOUS
 62
9
 10
1.50034902355555
 20
4.99628019312546
 30
0.0
 11
1.55034902355555
 21
4.99628019312546
 31
0.0
  0
LINE
  8
9
  6
CONTINUOUS
 62
9
 10
3.25034902355555
 20
5.14628019312546
 30
0.0
 11
3.25034902355555
 21
4.99628019312546
 31
0.0
  0
LINE
  8
9
  6
CONTINUOUS
 62
9
 10
3.25034902355555
 20
4.99628019312546
 30
0.0
 11
3.30034902355555
 21
4.99628019312546
 31
0.0
  0
LINE
  8
9
  6
CONTINUOUS
 62
9
 10
5.00034902355555
 20
5.14628019312546
 30
0.0
 11
5.00034902355555
 21
4.99628019312546
 31
0.0
  0
LINE
  8
9
  6
CONTINUOUS
 62
9
 10
5.00034902355555
 20
4.99628019312546
 30
0.0
 11
5.05034902355555
 21
4.99628019312546
 31
0.0
  0
LINE
  8
9
  6
CONTINUOUS
 62
9
 10
6.75034902355555
 20
5.14628019312546
 30
0.0
 11
6.75034902355555
 21
4.99628019312546
 31
0.0
  0
LINE
  8
9
  6
CONTINUOUS
 62
9
 10
6.75034902355555
 20
4.99628019312546
 30
0.0
 11
6.80034902355555
 21
4.99628019312546
 31
0.0
  0
LINE
  8
9
  6
CONTINUOUS
 62
9
 10
8.50034902355555
 20
5.14628019312546
 30
0.0
 11
8.50034902355555
 21
4.99628019312546
 31
0.0
  0
LINE
  8
9
  6
CONTINUOUS
 62
9
 10
8.50034902355555
 20
4.99628019312546
 30
0.0
 11
8.55034902355555
 21
4.99628019312546
 31
0.0
  0
LINE
  8
9
  6
CONTINUOUS
 62
9
 10
10.2503490235555
 20
5.14628019312546
 30
0.0
 11
10.2503490235555
 21
4.99628019312546
 31
0.0
  0
LINE
  8
9
  6
CONTINUOUS
 62
9
 10
10.2503490235555
 20
4.99628019312546
 30
0.0
 11
10.3003490235555
 21
4.99628019312546
 31
0.0
  0
LINE
  8
9
  6
CONTINUOUS
 62
9
 10
12.0003490235555
 20
5.14628019312546
 30
0.0
 11
12.0003490235555
 21
4.99628019312546
 31
0.0
  0
LINE
  8
9
  6
CONTINUOUS
 62
9
 10
12.0003490235555
 20
4.99628019312546
 30
0.0
 11
12.0503490235555
 21
4.99628019312546
 31
0.0
  0
LINE
  8
9
  6
CONTINUOUS
 62
9
 10
13.7503490235555
 20
5.14628019312546
 30
0.0
 11
13.7503490235555
 21
4.99628019312546
 31
0.0
  0
LINE
  8
9
  6
CONTINUOUS
 62
9
 10
13.7503490235555
 20
4.99628019312546
 30
0.0
 11
13.8003490235555
 21
4.99628019312546
 31
0.0
  0
LINE
  8
9
  6
CONTINUOUS
 62
9
 10
15.5003490235555
 20
5.14628019312546
 30
0.0
 11
15.5003490235555
 21
4.99628019312546
 31
0.0
  0
LINE
  8
9
  6
CONTINUOUS
 62
9
 10
15.5003490235555
 20
4.99628019312546
 30
0.0
 11
15.5503490235555
 21
4.99628019312546
 31
0.0
  0
LINE
  8
9
  6
CONTINUOUS
 62
9
 10
17.2503490235555
 20
5.14628019312546
 30
0.0
 11
17.2503490235555
 21
4.99628019312546
 31
0.0
  0
LINE
  8
9
  6
CONTINUOUS
 62
9
 10
17.2503490235555
 20
4.99628019312546
 30
0.0
 11
17.3003490235555
 21
4.99628019312546
 31
0.0
  0
LINE
  8
9
  6
CONTINUOUS
 62
9
 10
19.0003490235555
 20
5.14628019312546
 30
0.0
 11
19.0003490235555
 21
4.99628019312546
 31
0.0
  0
LINE
  8
9
  6
CONTINUOUS
 62
9
 10
19.0003490235555
 20
4.99628019312546
 30
0.0
 11
19.0503490235555
 21
4.99628019312546
 31
0.0
  0
LINE
  8
9
  6
CONTINUOUS
 62
9
 10
20.7503490235555
 20
5.14628019312546
 30
0.0
 11
20.7503490235555
 21
4.99628019312546
 31
0.0
  0
LINE
  8
9
  6
CONTINUOUS
 62
9
 10
20.7503490235555
 20
4.99628019312546
 30
0.0
 11
20.8003490235555
 21
4.99628019312546
 31
0.0
  0
LINE
  8
9
  6
CONTINUOUS
 62
9
 10
20.8503490136555
 20
4.99628019312546
 30
0.0
 11
21.0003490136555
 21
4.99628019312546
 31
0.0
  0
LINE
  8
9
  6
CONTINUOUS
 62
9
 10
21.0003490136555
 20
4.99628019312546
 30
0.0
 11
21.0003490136555
 21
5.04628019312546
 31
0.0
  0
LINE
  8
9
  6
CONTINUOUS
 62
9
 10
21.7528860462115
 20
10.1131515737778
 30
0.0
 11
21.7712593619274
 21
9.98445650289468
 31
0.0
  0
LINE
  8
9
  6
CONTINUOUS
 62
9
 10
21.7712593619274
 20
9.98445650289468
 30
0.0
 11
21.768533636846
 21
10.0343821518417
 31
0.0
  0
LINE
  8
9
  6
CONTINUOUS
 62
9
 10
21.7530078076338
 20
9.61517864087352
 30
0.0
 11
21.7248706578219
 21
9.48826015994793
 31
0.0
  0
LINE
  8
9
  6
CONTINUOUS
 62
9
 10
21.7248706578219
 20
9.48826015994793
 30
0.0
 11
21.7399059477971
 21
9.53594600748534
 31
0.0
  0
LINE
  8
9
  6
CONTINUOUS
 62
9
 10
21.7530078076338
 20
9.11517864087352
 30
0.0
 11
21.7248706578219
 21
8.98826015994793
 31
0.0
  0
LINE
  8
9
  6
CONTINUOUS
 62
9
 10
21.7248706578219
 20
8.98826015994793
 30
0.0
 11
21.7399059477971
 21
9.03594600748534
 31
0.0
  0
LINE
  8
9
  6
CONTINUOUS
 62
9
 10
21.7595933035075
 20
8.61939935650012
 30
0.0
 11
21.6314470769436
 21
8.64127501917432
 31
0.0
  0
LINE
  8
9
  6
CONTINUOUS
 62
9
 10
21.6314470769436
 20
8.64127501917432
 30
0.0
 11
21.6798132315032
 21
8.62859767350903
 31
0.0
  0
LINE
  8
9
  6
CONTINUOUS
 62
9
 10
12.5141829096494
 20
8.61409337283088
 30
0.0
 11
12.5053267739767
 21
8.74379136379816
 31
0.0
  0
LINE
  8
9
  6
CONTINUOUS
 62
9
 10
12.5053267739767
 20
8.74379136379816
 30
0.0
 11
12.5043723550025
 21
8.69380047378386
 31
0.0
  0
LINE
  8
9
  6
CONTINUOUS
 62
9
 10
12.5141829096494
 20
9.11409337283088
 30
0.0
 11
12.5053267739767
 21
9.24379136379816
 31
0.0
  0
LINE
  8
9
  6
CONTINUOUS
 62
9
 10
12.5053267739767
 20
9.24379136379816
 30
0.0
 11
12.5043723550025
 21
9.19380047378386
 31
0.0
  0
LINE
  8
9
  6
CONTINUOUS
 62
9
 10
12.5141829096494
 20
9.61409337283088
 30
0.0
 11
12.5053267739767
 21
9.74379136379816
 31
0.0
  0
LINE
  8
9
  6
CONTINUOUS
 62
9
 10
12.5053267739767
 20
9.74379136379816
 30
0.0
 11
12.5043723550025
 21
9.69380047378386
 31
0.0
  0
LINE
  8
9
  6
CONTINUOUS
 62
9
 10
12.5125386738216
 20
10.1178301830111
 30
0.0
 11
12.4188768628654
 21
10.2079826381546
 31
0.0
  0
LINE
  8
9
  6
CONTINUOUS
 62
9
 10
12.4188768628654
 20
10.2079826381546
 30
0.0
 11
12.4517415149038
 21
10.1703008833335
 31
0.0
  0
LINE
  8
9
  6
CONTINUOUS
 62
9
 10
11.3585171336852
 20
11.4917832732655
 30
0.0
 11
11.5085171336852
 21
11.4917832732655
 31
0.0
  0
LINE
  8
9
  6
CONTINUOUS
 62
9
 10
11.5085171336852
 20
11.4917832732655
 30
0.0
 11
11.5085171336852
 21
11.5417832732655
 31
0.0
  0
LINE
  8
9
  6
CONTINUOUS
 62
9
 10
1.00285135775769
 20
10.1135676619147
 30
0.0
 11
1.01170749339519
 21
9.983869670945
 31
0.0
  0
LINE
  8
9
  6
CONTINUOUS
 62
9
 10
1.01170749339519
 20
9.983869670945
 30
0.0
 11
1.01266191238295
 21
10.033860560959
 31
0.0
  0
LINE
  8
9
  6
CONTINUOUS
 62
9
 10
1.00285135775769
 20
9.61356766191468
 30
0.0
 11
1.01170749339519
 21
9.483869670945
 31
0.0
  0
LINE
  8
9
  6
CONTINUOUS
 62
9
 10
1.01170749339519
 20
9.483869670945
 30
0.0
 11
1.01266191238295
 21
9.53386056095904
 31
0.0
  0
LINE
  8
9
  6
CONTINUOUS
 62
9
 10
1.00285135775769
 20
9.11356766191468
 30
0.0
 11
1.01170749339519
 21
8.983869670945
 31
0.0
  0
LINE
  8
9
  6
CONTINUOUS
 62
9
 10
1.01170749339519
 20
8.983869670945
 30
0.0
 11
1.01266191238295
 21
9.03386056095904
 31
0.0
  0
LINE
  8
9
  6
CONTINUOUS
 62
9
 10
1.00845526440669
 20
8.60815898470717
 30
0.0
 11
1.13844753005674
 21
8.60957703659867
 31
0.0
  0
LINE
  8
9
  6
CONTINUOUS
 62
9
 10
1.13844753005674
 20
8.60957703659867
 30
0.0
 11
1.0885932234416
 21
8.61339123532492
 31
0.0
  0
LINE
  8
9
  6
CONTINUOUS
 62
9
 10
10.2641829096494
 20
8.61409337283088
 30
0.0
 11
10.2553267739767
 21
8.74379136379816
 31
0.0
  0
LINE
  8
9
  6
CONTINUOUS
 62
9
 10
10.2553267739767
 20
8.74379136379816
 30
0.0
 11
10.2543723550025
 21
8.69380047378386
 31
0.0
  0
LINE
  8
9
  6
CONTINUOUS
 62
9
 10
10.2641829096494
 20
9.11409337283088
 30
0.0
 11
10.2553267739767
 21
9.24379136379816
 31
0.0
  0
LINE
  8
9
  6
CONTINUOUS
 62
9
 10
10.2553267739767
 20
9.24379136379816
 30
0.0
 11
10.2543723550025
 21
9.19380047378386
 31
0.0
  0
LINE
  8
9
  6
CONTINUOUS
 62
9
 10
10.2641829096494
 20
9.61409337283088
 30
0.0
 11
10.2553267739767
 21
9.74379136379816
 31
0.0
  0
LINE
  8
9
  6
CONTINUOUS
 62
9
 10
10.2553267739767
 20
9.74379136379816
 30
0.0
 11
10.2543723550025
 21
9.69380047378386
 31
0.0
  0
LINE
  8
9
  6
CONTINUOUS
 62
9
 10
10.2635764126153
 20
10.1112665737756
 30
0.0
 11
10.3197987094755
 21
10.2284802817443
 31
0.0
  0
LINE
  8
9
  6
CONTINUOUS
 62
9
 10
10.3197987094755
 20
10.2284802817443
 30
0.0
 11
10.2943278626198
 21
10.1854542900596
 31
0.0
  0
LINE
  8
9
  6
CONTINUOUS
 62
9
 10
11.2585171336852
 20
11.6417832732655
 30
0.0
 11
11.2585171336852
 21
11.4917832732655
 31
0.0
  0
LINE
  8
9
  6
CONTINUOUS
 62
9
 10
11.2585171336852
 20
11.4917832732655
 30
0.0
 11
11.3085171336852
 21
11.4917832732655
 31
0.0
  0
LINE
  8
9
  6
CONTINUOUS
 62
9
 10
1.00286179065022
 20
16.3642631901568
 30
0.0
 11
0.995774905437328
 21
16.2344565028946
 31
0.0
  0
LINE
  8
9
  6
CONTINUOUS
 62
9
 10
0.995774905437328
 20
16.2344565028946
 30
0.0
 11
1.00284156532849
 21
16.2839546070804
 31
0.0
  0
LINE
  8
9
  6
CONTINUOUS
 62
9
 10
1.00300780763382
 20
15.8651786408735
 30
0.0
 11
0.974870657821865
 21
15.7382601599479
 31
0.0
  0
LINE
  8
9
  6
CONTINUOUS
 62
9
 10
0.974870657821865
 20
15.7382601599479
 30
0.0
 11
0.989905947797078
 21
15.7859460074853
 31
0.0
  0
LINE
  8
9
  6
CONTINUOUS
 62
9
 10
1.00300780763382
 20
15.3651786408735
 30
0.0
 11
0.974870657821865
 21
15.2382601599479
 31
0.0
  0
LINE
  8
9
  6
CONTINUOUS
 62
9
 10
0.974870657821865
 20
15.2382601599479
 30
0.0
 11
0.989905947797078
 21
15.2859460074853
 31
0.0
  0
LINE
  8
9
  6
CONTINUOUS
 62
9
 10
1.00974475106196
 20
14.8582930932287
 30
0.0
 11
1.13601922013855
 21
14.8891922592276
 31
0.0
  0
LINE
  8
9
  6
CONTINUOUS
 62
9
 10
1.13601922013855
 20
14.8891922592276
 30
0.0
 11
1.08660114461495
 21
14.8815860899195
 31
0.0
  0
LINE
  8
9
  6
CONTINUOUS
 62
9
 10
10.2641829096494
 20
14.8640933728309
 30
0.0
 11
10.2553267739767
 21
14.9937913637982
 31
0.0
  0
LINE
  8
9
  6
CONTINUOUS
 62
9
 10
10.2553267739767
 20
14.9937913637982
 30
0.0
 11
10.2543723550025
 21
14.9438004737839
 31
0.0
  0
LINE
  8
9
  6
CONTINUOUS
 62
9
 10
10.2641829096494
 20
15.3640933728309
 30
0.0
 11
10.2553267739767
 21
15.4937913637982
 31
0.0
  0
LINE
  8
9
  6
CONTINUOUS
 62
9
 10
10.2553267739767
 20
15.4937913637982
 30
0.0
 11
10.2543723550025
 21
15.4438004737839
 31
0.0
  0
LINE
  8
9
  6
CONTINUOUS
 62
9
 10
10.2641829096494
 20
15.8640933728309
 30
0.0
 11
10.2553267739767
 21
15.9937913637982
 31
0.0
  0
LINE
  8
9
  6
CONTINUOUS
 62
9
 10
10.2553267739767
 20
15.9937913637982
 30
0.0
 11
10.2543723550025
 21
15.9438004737839
 31
0.0
  0
LINE
  8
9
  6
CONTINUOUS
 62
9
 10
10.2635764126153
 20
16.3612665737756
 30
0.0
 11
10.3197987094755
 21
16.4784802817443
 31
0.0
  0
LINE
  8
9
  6
CONTINUOUS
 62
9
 10
10.3197987094755
 20
16.4784802817443
 30
0.0
 11
10.2943278626198
 21
16.4354542900596
 31
0.0
  0
LINE
  8
9
  6
CONTINUOUS
 62
9
 10
11.2585171336852
 20
17.8917832732655
 30
0.0
 11
11.2585171336852
 21
17.7417832732655
 31
0.0
  0
LINE
  8
9
  6
CONTINUOUS
 62
9
 10
11.2585171336852
 20
17.7417832732655
 30
0.0
 11
11.3085171336852
 21
17.7417832732655
 31
0.0
  0
LINE
  8
9
  6
CONTINUOUS
 62
9
 10
21.7528513577577
 20
16.3635676619147
 30
0.0
 11
21.7617074933952
 21
16.233869670945
 31
0.0
  0
LINE
  8
9
  6
CONTINUOUS
 62
9
 10
21.7617074933952
 20
16.233869670945
 30
0.0
 11
21.762661912383
 21
16.283860560959
 31
0.0
  0
LINE
  8
9
  6
CONTINUOUS
 62
9
 10
21.7528513577577
 20
15.8635676619147
 30
0.0
 11
21.7617074933952
 21
15.733869670945
 31
0.0
  0
LINE
  8
9
  6
CONTINUOUS
 62
9
 10
21.7617074933952
 20
15.733869670945
 30
0.0
 11
21.762661912383
 21
15.783860560959
 31
0.0
  0
LINE
  8
9
  6
CONTINUOUS
 62
9
 10
21.7528513577577
 20
15.3635676619147
 30
0.0
 11
21.7617074933952
 21
15.233869670945
 31
0.0
  0
LINE
  8
9
  6
CONTINUOUS
 62
9
 10
21.7617074933952
 20
15.233869670945
 30
0.0
 11
21.762661912383
 21
15.283860560959
 31
0.0
  0
LINE
  8
9
  6
CONTINUOUS
 62
9
 10
21.758579002964
 20
14.8695020500195
 30
0.0
 11
21.6285867373139
 21
14.8680839981323
 31
0.0
  0
LINE
  8
9
  6
CONTINUOUS
 62
9
 10
21.6285867373139
 20
14.8680839981323
 30
0.0
 11
21.6784410439289
 21
14.8642697994044
 31
0.0
  0
LINE
  8
9
  6
CONTINUOUS
 62
9
 10
12.5141829096494
 20
14.8640933728309
 30
0.0
 11
12.5053267739767
 21
14.9937913637982
 31
0.0
  0
LINE
  8
9
  6
CONTINUOUS
 62
9
 10
12.5053267739767
 20
14.9937913637982
 30
0.0
 11
12.5043723550025
 21
14.9438004737839
 31
0.0
  0
LINE
  8
9
  6
CONTINUOUS
 62
9
 10
12.5141829096494
 20
15.3640933728309
 30
0.0
 11
12.5053267739767
 21
15.4937913637982
 31
0.0
  0
LINE
  8
9
  6
CONTINUOUS
 62
9
 10
12.5053267739767
 20
15.4937913637982
 30
0.0
 11
12.5043723550025
 21
15.4438004737839
 31
0.0
  0
LINE
  8
9
  6
CONTINUOUS
 62
9
 10
12.5141829096494
 20
15.8640933728309
 30
0.0
 11
12.5053267739767
 21
15.9937913637982
 31
0.0
  0
LINE
  8
9
  6
CONTINUOUS
 62
9
 10
12.5053267739767
 20
15.9937913637982
 30
0.0
 11
12.5043723550025
 21
15.9438004737839
 31
0.0
  0
LINE
  8
9
  6
CONTINUOUS
 62
9
 10
12.5125386738217
 20
16.3678301830111
 30
0.0
 11
12.4188768628654
 21
16.4579826381546
 31
0.0
  0
LINE
  8
9
  6
CONTINUOUS
 62
9
 10
12.4188768628654
 20
16.4579826381546
 30
0.0
 11
12.4517415149038
 21
16.4203008833335
 31
0.0
  0
LINE
  8
9
  6
CONTINUOUS
 62
9
 10
11.3585171336852
 20
17.7417832732655
 30
0.0
 11
11.5085171336852
 21
17.7417832732655
 31
0.0
  0
LINE
  8
9
  6
CONTINUOUS
 62
9
 10
11.5085171336852
 20
17.7417832732655
 30
0.0
 11
11.5085171336852
 21
17.7917832732655
 31
0.0
  0
LINE
  8
9
  6
CONTINUOUS
 62
9
 10
21.7641829096494
 20
21.1140933728309
 30
0.0
 11
21.7553267739767
 21
21.2437913637982
 31
0.0
  0
LINE
  8
9
  6
CONTINUOUS
 62
9
 10
21.7553267739767
 20
21.2437913637982
 30
0.0
 11
21.7543723550025
 21
21.1938004737839
 31
0.0
  0
LINE
  8
9
  6
CONTINUOUS
 62
9
 10
21.7641829096494
 20
21.6140933728309
 30
0.0
 11
21.7553267739767
 21
21.7437913637982
 31
0.0
  0
LINE
  8
9
  6
CONTINUOUS
 62
9
 10
21.7553267739767
 20
21.7437913637982
 30
0.0
 11
21.7543723550025
 21
21.6938004737839
 31
0.0
  0
LINE
  8
9
  6
CONTINUOUS
 62
9
 10
21.7641829096494
 20
22.1140933728309
 30
0.0
 11
21.7553267739767
 21
22.2437913637982
 31
0.0
  0
LINE
  8
9
  6
CONTINUOUS
 62
9
 10
21.7553267739767
 20
22.2437913637982
 30
0.0
 11
21.7543723550025
 21
22.1938004737839
 31
0.0
  0
LINE
  8
9
  6
CONTINUOUS
 62
9
 10
21.758579002964
 20
22.6195020500195
 30
0.0
 11
21.6285867373139
 21
22.6180839981323
 31
0.0
  0
LINE
  8
9
  6
CONTINUOUS
 62
9
 10
21.6285867373139
 20
22.6180839981323
 30
0.0
 11
21.6784410439289
 21
22.6142697994044
 31
0.0
  0
LINE
  8
9
  6
CONTINUOUS
 62
9
 10
12.5028513577577
 20
22.6135676619147
 30
0.0
 11
12.5117074933952
 21
22.483869670945
 31
0.0
  0
LINE
  8
9
  6
CONTINUOUS
 62
9
 10
12.5117074933952
 20
22.483869670945
 30
0.0
 11
12.512661912383
 21
22.533860560959
 31
0.0
  0
LINE
  8
9
  6
CONTINUOUS
 62
9
 10
12.5028513577577
 20
22.1135676619147
 30
0.0
 11
12.5117074933952
 21
21.983869670945
 31
0.0
  0
LINE
  8
9
  6
CONTINUOUS
 62
9
 10
12.5117074933952
 20
21.983869670945
 30
0.0
 11
12.512661912383
 21
22.033860560959
 31
0.0
  0
LINE
  8
9
  6
CONTINUOUS
 62
9
 10
12.5028513577577
 20
21.6135676619147
 30
0.0
 11
12.5117074933952
 21
21.483869670945
 31
0.0
  0
LINE
  8
9
  6
CONTINUOUS
 62
9
 10
12.5117074933952
 20
21.483869670945
 30
0.0
 11
12.512661912383
 21
21.533860560959
 31
0.0
  0
LINE
  8
9
  6
CONTINUOUS
 62
9
 10
12.503094002628
 20
21.1154917698039
 30
0.0
 11
12.4677385074375
 21
20.9903918538973
 31
0.0
  0
LINE
  8
9
  6
CONTINUOUS
 62
9
 10
12.4677385074375
 20
20.9903918538973
 30
0.0
 11
12.4854785585705
 21
21.0371389456336
 31
0.0
  0
LINE
  8
9
  6
CONTINUOUS
 62
9
 10
11.5085171336852
 20
17.8417832732655
 30
0.0
 11
11.5085171336852
 21
17.9917832732655
 31
0.0
  0
LINE
  8
9
  6
CONTINUOUS
 62
9
 10
11.5085171336852
 20
17.9917832732655
 30
0.0
 11
11.4585171336852
 21
17.9917832732655
 31
0.0
  0
LINE
  8
9
  6
CONTINUOUS
 62
9
 10
10.2528860462115
 20
22.6131515737778
 30
0.0
 11
10.2712593619274
 21
22.4844565028947
 31
0.0
  0
LINE
  8
9
  6
CONTINUOUS
 62
9
 10
10.2712593619274
 20
22.4844565028947
 30
0.0
 11
10.268533636846
 21
22.5343821518417
 31
0.0
  0
LINE
  8
9
  6
CONTINUOUS
 62
9
 10
10.2530078076338
 20
22.1151786408735
 30
0.0
 11
10.2248706578219
 21
21.9882601599479
 31
0.0
  0
LINE
  8
9
  6
CONTINUOUS
 62
9
 10
10.2248706578219
 20
21.9882601599479
 30
0.0
 11
10.2399059477971
 21
22.0359460074853
 31
0.0
  0
LINE
  8
9
  6
CONTINUOUS
 62
9
 10
10.2530078076338
 20
21.6151786408735
 30
0.0
 11
10.2248706578219
 21
21.4882601599479
 31
0.0
  0
LINE
  8
9
  6
CONTINUOUS
 62
9
 10
10.2248706578219
 20
21.4882601599479
 30
0.0
 11
10.2399059477971
 21
21.5359460074853
 31
0.0
  0
LINE
  8
9
  6
CONTINUOUS
 62
9
 10
10.2595933035075
 20
21.1193993565001
 30
0.0
 11
10.1314470769436
 21
21.1412750191743
 31
0.0
  0
LINE
  8
9
  6
CONTINUOUS
 62
9
 10
10.1314470769436
 20
21.1412750191743
 30
0.0
 11
10.1798132315032
 21
21.128597673509
 31
0.0
  0
LINE
  8
9
  6
CONTINUOUS
 62
9
 10
1.01418290964937
 20
21.1140933728309
 30
0.0
 11
1.0053267739767
 21
21.2437913637982
 31
0.0
  0
LINE
  8
9
  6
CONTINUOUS
 62
9
 10
1.0053267739767
 20
21.2437913637982
 30
0.0
 11
1.00437235500249
 21
21.1938004737839
 31
0.0
  0
LINE
  8
9
  6
CONTINUOUS
 62
9
 10
1.01418290964937
 20
21.6140933728309
 30
0.0
 11
1.0053267739767
 21
21.7437913637982
 31
0.0
  0
LINE
  8
9
  6
CONTINUOUS
 62
9
 10
1.0053267739767
 20
21.7437913637982
 30
0.0
 11
1.00437235500249
 21
21.6938004737839
 31
0.0
  0
LINE
  8
9
  6
CONTINUOUS
 62
9
 10
1.01418290964937
 20
22.1140933728309
 30
0.0
 11
1.0053267739767
 21
22.2437913637982
 31
0.0
  0
LINE
  8
9
  6
CONTINUOUS
 62
9
 10
1.0053267739767
 20
22.2437913637982
 30
0.0
 11
1.00437235500249
 21
22.1938004737839
 31
0.0
  0
LINE
  8
9
  6
CONTINUOUS
 62
9
 10
1.01253867382165
 20
22.6178301830111
 30
0.0
 11
0.91887686286545
 21
22.7079826381546
 31
0.0
  0
LINE
  8
9
  6
CONTINUOUS
 62
9
 10
0.91887686286545
 20
22.7079826381546
 30
0.0
 11
0.951741514903788
 21
22.6703008833335
 31
0.0
  0
LINE
  8
9
  6
CONTINUOUS
 62
9
 10
-0.141482866314808
 20
23.9917832732655
 30
0.0
 11
0.00851713368519214
 21
23.9917832732655
 31
0.0
  0
LINE
  8
9
  6
CONTINUOUS
 62
9
 10
0.00851713368519214
 20
23.9917832732655
 30
0.0
 11
0.00851713368519214
 21
24.0417832732655
 31
0.0
  0
ENDSEC
  0
EOF
